<svg width="975" height="438" viewBox="0 0 975 438" fill="none" xmlns="http://www.w3.org/2000/svg">
<g clip-path="url(#clip0)">
<path d="M932 149.5V193.5L246.5 435L24 251V211.5L665 30L932 149.5Z" fill="#DFE6F5"/>
<path d="M24 210L666 28L932 151L248 393L24 210Z" fill="#A7ADB8"/>
<line x1="245.501" y1="434.976" x2="247.501" y2="392.976" stroke="#A7ADB8"/>
<line x1="1.36099" y1="185.654" x2="24.361" y2="209.654" stroke="white"/>
<line x1="628.257" y1="6.57125" x2="663.257" y2="27.5713" stroke="white"/>
<line x1="0.858545" y1="185.52" x2="296.771" y2="98.2381" stroke="white"/>
<line x1="461.866" y1="52.5182" x2="627.779" y2="6.51817" stroke="white"/>
<path d="M327.406 89.0034C327.853 90.5981 328.57 91.7804 329.559 92.5504C330.547 93.3204 331.746 93.508 333.156 93.1132C333.618 92.9837 334.042 92.8524 334.429 92.7193C334.809 92.563 335.119 92.4262 335.361 92.3088L332.729 82.9143C332.348 82.7969 331.872 82.7433 331.301 82.7535C330.754 82.7572 330.214 82.8335 329.683 82.9824C327.233 83.6685 326.474 85.6755 327.406 89.0034ZM341.516 94.3981C341.093 94.6662 340.6 94.9538 340.038 95.2607C339.469 95.5445 338.863 95.8265 338.219 96.1067C337.597 96.3804 336.947 96.6374 336.266 96.8778C335.615 97.1348 334.978 97.3507 334.354 97.5255C332.852 97.9462 331.45 98.102 330.148 97.993C328.847 97.884 327.678 97.5384 326.643 96.956C325.601 96.3506 324.699 95.5316 323.936 94.499C323.19 93.4369 322.613 92.1778 322.205 90.7218C321.791 89.2427 321.604 87.8621 321.643 86.5799C321.676 85.2746 321.923 84.1088 322.384 83.0827C322.844 82.0565 323.509 81.1847 324.38 80.4673C325.274 79.7434 326.368 79.2002 327.662 78.8378C328.379 78.6371 329.034 78.5284 329.627 78.5118C330.244 78.4886 330.877 78.5233 331.526 78.6157L329.215 70.3651L334.147 68.0865L341.516 94.3981ZM339.929 80.7858L343.123 77.9097L340.153 67.3019L345.085 65.0233L347.57 73.8978L349.682 71.9605L352.135 74.7129L348.677 77.8497L350.648 84.8869C350.777 85.3492 350.929 85.7554 351.101 86.1058C351.274 86.4561 351.489 86.7325 351.745 86.935C352.024 87.1309 352.371 87.258 352.786 87.3163C353.201 87.3745 353.727 87.3393 354.364 87.2108L354.831 91.6786C353.322 92.0762 352.052 92.2575 351.02 92.2224C350.011 92.1809 349.155 91.972 348.452 91.5958C347.765 91.19 347.211 90.6349 346.789 89.9305C346.384 89.1965 346.046 88.3442 345.774 87.3735L344.23 81.8616L342.382 83.5382L339.929 80.7858ZM374.535 85.1132C373.728 85.6134 372.661 86.1616 371.332 86.758C370.01 87.3774 368.587 87.9007 367.061 88.3279C365.513 88.7616 364.16 88.9161 363.004 88.7913C361.871 88.6601 360.9 88.3089 360.092 87.7376C359.277 87.1433 358.597 86.3617 358.052 85.3929C357.507 84.4241 357.059 83.3157 356.71 82.0677L353.865 71.9106L359.03 70.464L361.7 79.9972C362.166 81.6611 362.722 82.8014 363.368 83.418C364.015 84.0345 364.939 84.1745 366.14 83.838C366.51 83.7344 366.9 83.6128 367.309 83.4732C367.712 83.3105 368.069 83.1607 368.38 83.0238L364.438 68.9494L369.603 67.5028L374.535 85.1132ZM381.243 73.4397C382.052 76.3285 383.624 77.4461 385.958 76.7924C386.489 76.6435 386.967 76.435 387.39 76.1669C387.813 75.8988 388.161 75.627 388.433 75.3515L386.122 67.1009C385.855 67.1259 385.545 67.1754 385.192 67.2494C384.832 67.3002 384.421 67.3904 383.959 67.5199C382.595 67.9017 381.705 68.6372 381.287 69.7262C380.869 70.8152 380.855 72.0531 381.243 73.4397ZM394.656 77.6835C395.491 80.6648 395.347 83.0854 394.223 84.9455C393.128 86.8222 390.998 88.2039 387.832 89.0906C386.723 89.4013 385.584 89.608 384.417 89.7107C383.255 89.8365 382.156 89.8703 381.118 89.8121L380.805 85.2264C381.705 85.3234 382.62 85.3414 383.55 85.2803C384.503 85.2128 385.545 85.0204 386.678 84.7033C388.157 84.289 389.106 83.6742 389.526 82.8588C389.969 82.037 390.048 81.1176 389.763 80.1007L389.578 79.4421C389.095 79.8516 388.572 80.2099 388.01 80.5168C387.465 80.7942 386.845 81.03 386.152 81.2242C383.633 81.9297 381.496 81.7306 379.742 80.6269C377.98 79.5001 376.724 77.5963 375.974 74.9154C375.598 73.575 375.466 72.3034 375.578 71.1007C375.683 69.8749 376.019 68.7591 376.585 67.7533C377.174 66.741 377.987 65.865 379.026 65.1254C380.059 64.3626 381.303 63.7774 382.759 63.3696C383.383 63.1949 384.029 63.0515 384.695 62.9396C385.378 62.7982 386.056 62.683 386.729 62.5942C387.402 62.5054 388.047 62.4495 388.664 62.4263C389.297 62.3736 389.864 62.3518 390.365 62.3611L394.656 77.6835ZM414.634 64.6861C415.036 66.1189 415.197 67.4945 415.117 68.8128C415.031 70.1079 414.715 71.2931 414.169 72.3682C413.616 73.4203 412.85 74.3328 411.87 75.1057C410.913 75.8721 409.753 76.4462 408.39 76.8281C407.049 77.2035 405.759 77.3155 404.521 77.1639C403.305 77.0059 402.188 76.621 401.169 76.009C400.144 75.374 399.247 74.5286 398.477 73.473C397.702 72.3942 397.113 71.1384 396.712 69.7055C396.311 68.2726 396.165 66.9054 396.274 65.6038C396.406 64.2957 396.748 63.1156 397.301 62.0635C397.877 61.005 398.643 60.0925 399.6 59.3261C400.58 58.5532 401.717 57.9855 403.011 57.6231C404.328 57.2542 405.595 57.1487 406.81 57.3067C408.049 57.4582 409.178 57.84 410.197 58.4519C411.215 59.0638 412.109 59.8976 412.879 60.9533C413.648 62.0089 414.233 63.2532 414.634 64.6861ZM409.365 66.1618C408.918 64.5672 408.245 63.4098 407.346 62.6897C406.463 61.94 405.432 61.7302 404.254 62.0603C403.075 62.3904 402.292 63.1083 401.903 64.214C401.509 65.2965 401.535 66.6351 401.981 68.2298C402.428 69.8244 403.107 71.0049 404.02 71.7712C404.926 72.5144 405.968 72.7209 407.147 72.3909C408.325 72.0608 409.097 71.3461 409.462 70.2469C409.844 69.1182 409.812 67.7564 409.365 66.1618ZM425.394 67.542C426.342 67.2766 426.986 66.9965 427.327 66.7016C427.668 66.4067 427.765 65.9934 427.616 65.4619C427.499 65.0459 427.145 64.7589 426.552 64.6008C425.953 64.4197 425.079 64.2783 423.929 64.1767C423.035 64.1028 422.209 63.9979 421.448 63.862C420.71 63.7197 420.049 63.4937 419.463 63.1841C418.872 62.8513 418.361 62.4085 417.932 61.8557C417.503 61.303 417.166 60.5875 416.92 59.7092C416.441 57.999 416.698 56.4691 417.691 55.1193C418.683 53.7696 420.289 52.784 422.508 52.1627C423.617 51.852 424.709 51.6582 425.784 51.5814C426.853 51.4815 427.72 51.463 428.386 51.5258L428.611 55.7995C427.952 55.7598 427.241 55.7594 426.479 55.7983C425.741 55.8307 424.932 55.9698 424.054 56.2158C422.436 56.6689 421.754 57.3461 422.006 58.2474C422.064 58.4554 422.151 58.6306 422.266 58.7729C422.38 58.9153 422.564 59.0382 422.817 59.1417C423.064 59.2221 423.387 59.3063 423.785 59.3941C424.2 59.4523 424.714 59.5077 425.327 59.5604C426.576 59.6592 427.629 59.8131 428.485 60.0219C429.334 60.2077 430.035 60.485 430.587 60.8538C431.156 61.193 431.602 61.6289 431.925 62.1613C432.272 62.6873 432.552 63.3317 432.766 64.0943C433.271 65.897 432.971 67.4514 431.866 68.7577C430.785 70.0576 429.007 71.0538 426.535 71.7463C424.917 72.1994 423.526 72.4394 422.362 72.4663C421.221 72.4867 420.417 72.4627 419.949 72.3943L419.641 67.957C420.616 68.0577 421.595 68.0826 422.578 68.0317C423.554 67.9577 424.493 67.7944 425.394 67.542ZM425.142 44.8825L420.772 51.303L417.822 49.8486L421.172 42.854L425.142 44.8825ZM434.604 59.1307C434.235 57.8134 434.097 56.5187 434.189 55.2466C434.298 53.945 434.637 52.7534 435.207 51.6718C435.77 50.567 436.558 49.5986 437.571 48.7665C438.584 47.9345 439.83 47.3113 441.309 46.8971C442.28 46.6252 443.195 46.4685 444.056 46.4268C444.91 46.3621 445.764 46.3847 446.617 46.4946L446.698 50.9209C446.161 50.8719 445.584 50.859 444.967 50.8821C444.351 50.9053 443.684 51.0172 442.968 51.2178C441.442 51.645 440.431 52.4392 439.934 53.6003C439.46 54.755 439.439 56.1065 439.873 57.6549C440.333 59.2958 441.035 60.4698 441.981 61.177C442.95 61.8776 444.313 61.982 446.069 61.4901C446.693 61.3153 447.347 61.0699 448.031 60.7537C448.715 60.4375 449.322 60.0681 449.852 59.6456L451.764 63.671C451.234 64.0935 450.545 64.5234 449.695 64.9607C448.846 65.398 447.878 65.7688 446.792 66.073C445.128 66.539 443.627 66.6976 442.289 66.5489C440.945 66.377 439.76 65.9736 438.735 65.3385C437.733 64.697 436.885 63.8503 436.192 62.7983C435.515 61.7168 434.986 60.4942 434.604 59.1307ZM443.666 39.6946L439.296 46.1151L436.346 44.6607L439.696 37.6661L443.666 39.6946Z" fill="white"/>
<path d="M419.332 415.003C419.296 418.003 420.49 419.517 422.914 419.546C423.466 419.553 423.983 419.487 424.464 419.349C424.946 419.211 425.356 419.048 425.694 418.86L425.797 410.292C425.533 410.241 425.222 410.201 424.862 410.173C424.503 410.121 424.083 410.092 423.603 410.086C422.187 410.069 421.126 410.524 420.419 411.452C419.711 412.38 419.349 413.563 419.332 415.003ZM431.011 422.848C430.974 425.943 430.154 428.226 428.553 429.695C426.975 431.188 424.542 431.915 421.254 431.875C420.102 431.862 418.952 431.74 417.802 431.51C416.653 431.304 415.588 431.028 414.608 430.68L415.598 426.191C416.434 426.537 417.306 426.812 418.216 427.015C419.15 427.218 420.204 427.327 421.38 427.341C422.916 427.359 424 427.036 424.632 426.371C425.288 425.707 425.623 424.847 425.635 423.791L425.643 423.107C425.064 423.364 424.462 423.561 423.836 423.698C423.235 423.811 422.574 423.863 421.854 423.854C419.238 423.823 417.244 423.031 415.87 421.478C414.497 419.902 413.827 417.721 413.86 414.938C413.877 413.546 414.108 412.288 414.554 411.166C414.999 410.019 415.635 409.043 416.461 408.236C417.31 407.43 418.338 406.819 419.543 406.401C420.748 405.96 422.107 405.748 423.619 405.766C424.267 405.774 424.926 405.818 425.597 405.898C426.293 405.954 426.976 406.034 427.647 406.138C428.317 406.242 428.952 406.37 429.55 406.521C430.173 406.648 430.723 406.787 431.201 406.937L431.011 422.848ZM447.594 411.237C447.116 411.112 446.553 410.985 445.906 410.857C445.26 410.705 444.565 410.625 443.821 410.616C443.485 410.612 443.077 410.643 442.596 410.709C442.139 410.752 441.791 410.808 441.55 410.877L441.377 425.348L436.013 425.284L436.228 407.357C437.192 407.032 438.323 406.734 439.623 406.462C440.946 406.165 442.412 406.027 444.02 406.046C444.308 406.05 444.656 406.078 445.063 406.131C445.471 406.16 445.878 406.212 446.285 406.289C446.693 406.342 447.1 406.419 447.507 406.52C447.914 406.597 448.26 406.697 448.547 406.82L447.594 411.237ZM467.37 425.011C466.455 425.264 465.276 425.49 463.834 425.689C462.391 425.912 460.878 426.013 459.294 425.994C457.686 425.975 456.345 425.743 455.27 425.298C454.219 424.854 453.386 424.244 452.771 423.468C452.157 422.669 451.724 421.728 451.473 420.644C451.222 419.561 451.104 418.372 451.12 417.076L451.246 406.529L456.61 406.593L456.491 416.492C456.471 418.22 456.684 419.471 457.13 420.244C457.577 421.018 458.425 421.412 459.672 421.427C460.056 421.431 460.465 421.424 460.897 421.405C461.329 421.363 461.714 421.319 462.05 421.275L462.225 406.66L467.589 406.724L467.37 425.011ZM484.643 416.253C484.685 412.798 483.434 411.054 480.89 411.024C480.338 411.017 479.785 411.083 479.231 411.22C478.702 411.358 478.267 411.533 477.929 411.745L477.812 421.5C478.075 421.551 478.411 421.603 478.818 421.656C479.226 421.685 479.67 421.702 480.15 421.708C481.614 421.725 482.724 421.235 483.48 420.236C484.236 419.237 484.624 417.909 484.643 416.253ZM490.113 416.463C490.095 417.975 489.851 419.34 489.38 420.558C488.934 421.777 488.285 422.813 487.435 423.667C486.585 424.521 485.545 425.181 484.315 425.646C483.086 426.087 481.691 426.299 480.131 426.28C479.483 426.272 478.8 426.228 478.08 426.147C477.385 426.091 476.69 426.011 475.995 425.906C475.324 425.802 474.678 425.687 474.055 425.559C473.433 425.408 472.883 425.257 472.404 425.107L472.721 398.649L478.095 397.85L477.982 407.281C478.585 407.024 479.212 406.828 479.862 406.691C480.511 406.555 481.208 406.491 481.952 406.5C483.296 406.516 484.481 406.771 485.507 407.263C486.534 407.731 487.39 408.402 488.075 409.274C488.761 410.146 489.276 411.196 489.622 412.425C489.967 413.629 490.131 414.975 490.113 416.463ZM511.947 416.688C511.929 418.176 511.697 419.541 511.25 420.784C510.803 422.003 510.166 423.051 509.34 423.93C508.514 424.784 507.522 425.444 506.364 425.91C505.23 426.376 503.955 426.601 502.54 426.584C501.148 426.568 499.879 426.312 498.732 425.819C497.61 425.325 496.646 424.642 495.841 423.768C495.035 422.87 494.412 421.807 493.971 420.577C493.53 419.324 493.318 417.953 493.336 416.465C493.354 414.977 493.598 413.624 494.069 412.406C494.563 411.188 495.224 410.152 496.05 409.297C496.9 408.443 497.892 407.783 499.026 407.317C500.184 406.851 501.434 406.626 502.778 406.642C504.146 406.658 505.391 406.913 506.513 407.407C507.66 407.9 508.635 408.584 509.441 409.458C510.247 410.331 510.87 411.383 511.311 412.612C511.753 413.842 511.965 415.2 511.947 416.688ZM506.475 416.623C506.495 414.967 506.174 413.667 505.514 412.723C504.877 411.755 503.947 411.264 502.723 411.249C501.499 411.235 500.546 411.703 499.862 412.655C499.179 413.583 498.827 414.875 498.808 416.531C498.788 418.187 499.108 419.511 499.768 420.503C500.429 421.471 501.371 421.962 502.595 421.977C503.819 421.991 504.76 421.523 505.42 420.57C506.103 419.594 506.455 418.279 506.475 416.623ZM521.47 422.455C522.453 422.466 523.151 422.379 523.561 422.192C523.971 422.005 524.18 421.635 524.186 421.083C524.191 420.651 523.932 420.276 523.408 419.958C522.884 419.615 522.084 419.234 521.009 418.813C520.173 418.491 519.409 418.158 518.717 417.813C518.049 417.469 517.478 417.066 517.003 416.605C516.529 416.119 516.164 415.551 515.908 414.9C515.651 414.248 515.529 413.467 515.54 412.555C515.561 410.779 516.238 409.383 517.57 408.367C518.902 407.351 520.72 406.857 523.024 406.884C524.176 406.898 525.279 407.019 526.332 407.248C527.386 407.452 528.223 407.678 528.844 407.926L527.858 412.09C527.237 411.867 526.555 411.667 525.813 411.49C525.095 411.313 524.28 411.22 523.368 411.209C521.688 411.188 520.843 411.646 520.832 412.582C520.829 412.798 520.863 412.991 520.933 413.16C521.003 413.328 521.145 413.498 521.359 413.669C521.573 413.815 521.859 413.987 522.217 414.183C522.599 414.356 523.076 414.553 523.65 414.776C524.82 415.222 525.787 415.666 526.55 416.107C527.313 416.524 527.907 416.987 528.333 417.496C528.784 417.982 529.089 418.526 529.25 419.128C529.435 419.73 529.522 420.427 529.513 421.219C529.49 423.091 528.766 424.498 527.338 425.441C525.935 426.384 523.949 426.841 521.381 426.81C519.701 426.79 518.299 426.629 517.175 426.328C516.074 426.026 515.309 425.777 514.88 425.58L515.832 421.235C516.739 421.606 517.672 421.905 518.629 422.133C519.587 422.336 520.534 422.443 521.47 422.455ZM527.599 400.638L521.6 405.571L519.178 403.346L524.36 397.575L527.599 400.638ZM532.673 416.972C532.689 415.604 532.92 414.323 533.367 413.128C533.837 411.91 534.498 410.862 535.348 409.984C536.199 409.082 537.228 408.374 538.434 407.861C539.64 407.347 541.011 407.1 542.547 407.118C543.555 407.13 544.478 407.237 545.316 407.439C546.154 407.617 546.967 407.879 547.754 408.224L546.587 412.495C546.086 412.297 545.536 412.122 544.937 411.971C544.339 411.82 543.668 411.74 542.924 411.731C541.34 411.712 540.146 412.19 539.343 413.164C538.563 414.139 538.163 415.43 538.144 417.038C538.124 418.742 538.468 420.066 539.177 421.011C539.909 421.955 541.188 422.439 543.012 422.461C543.66 422.468 544.356 422.417 545.102 422.306C545.847 422.195 546.533 422.011 547.16 421.754L547.864 426.155C547.237 426.411 546.454 426.63 545.516 426.811C544.578 426.992 543.544 427.075 542.417 427.062C540.689 427.041 539.204 426.771 537.962 426.252C536.72 425.709 535.697 424.989 534.892 424.091C534.11 423.194 533.535 422.143 533.165 420.939C532.82 419.71 532.656 418.388 532.673 416.972ZM546.834 400.869L540.835 405.801L538.413 403.576L543.595 397.806L546.834 400.869Z" fill="white"/>
<path d="M757.05 45.6946C757.942 46.109 758.614 46.3151 759.065 46.3128C759.516 46.3105 759.858 46.059 760.09 45.5583C760.272 45.1665 760.189 44.7179 759.842 44.2126C759.504 43.6854 758.932 43.0094 758.124 42.1845C757.494 41.5478 756.933 40.9305 756.444 40.3326C755.976 39.7448 755.62 39.1431 755.377 38.5274C755.144 37.8898 755.044 37.2216 755.077 36.5227C755.111 35.8238 755.319 35.0608 755.703 34.2336C756.451 32.6228 757.641 31.6273 759.273 31.2472C760.905 30.8671 762.766 31.1623 764.856 32.1326C765.9 32.6178 766.856 33.1807 767.723 33.8213C768.6 34.4402 769.271 34.9899 769.736 35.4704L767.128 38.8637C766.653 38.405 766.114 37.9428 765.51 37.4771C764.927 37.0215 764.223 36.6017 763.395 36.2176C761.872 35.51 760.913 35.5807 760.518 36.4297C760.427 36.6256 760.379 36.8149 760.374 36.9976C760.368 37.1803 760.428 37.3933 760.553 37.6366C760.689 37.8582 760.879 38.1319 761.125 38.4576C761.402 38.7717 761.757 39.148 762.188 39.5865C763.073 40.4736 763.773 41.2748 764.287 41.9901C764.812 42.6836 765.164 43.3499 765.344 43.9889C765.555 44.6163 765.611 45.2375 765.51 45.8524C765.432 46.4775 765.226 47.1492 764.892 47.8675C764.104 49.5654 762.865 50.5515 761.177 50.8259C759.51 51.1104 757.512 50.7118 755.183 49.6303C753.659 48.9228 752.446 48.2009 751.544 47.4646C750.664 46.7384 750.069 46.1973 749.758 45.8412L752.409 42.2694C753.084 42.98 753.812 43.6354 754.592 44.2356C755.382 44.8141 756.201 45.3004 757.05 45.6946ZM785.446 46.2184C784.852 46.4718 784.046 46.8119 783.027 47.2386C782.03 47.6755 780.944 48.1633 779.768 48.702C778.591 49.2407 777.384 49.8179 776.146 50.4336C774.929 51.0594 773.793 51.6828 772.737 52.3039L781.03 56.155L779.15 60.2038L764.947 53.6085L766.281 50.7352C767.102 50.1638 768.035 49.5784 769.081 48.9791C770.159 48.368 771.258 47.7671 772.379 47.1763C773.522 46.5956 774.639 46.0426 775.729 45.5171C776.83 44.9698 777.836 44.4843 778.748 44.0607L771.434 40.6645L773.314 36.6157L786.962 42.9532L785.446 46.2184ZM785.048 52.662C785.755 51.1383 786.6 49.9166 787.583 48.9969C788.598 48.0656 789.663 47.3959 790.778 46.9878C791.894 46.5797 793.033 46.4071 794.194 46.4701C795.377 46.5433 796.491 46.8224 797.536 47.3076C799.974 48.4397 801.552 50.0852 802.269 52.2441C802.997 54.3814 802.689 56.8975 801.344 59.7926C801.213 60.0756 801.056 60.3862 800.872 60.7244C800.699 61.0408 800.54 61.3245 800.397 61.5756L789.361 56.451C789.005 57.5029 789.104 58.5147 789.658 59.4866C790.213 60.4584 791.186 61.2677 792.579 61.9146C793.472 62.329 794.378 62.6572 795.298 62.899C796.249 63.1291 797.053 63.2509 797.708 63.2641L796.527 67.5182C796.205 67.5275 795.796 67.4964 795.3 67.4248C794.804 67.3533 794.264 67.2347 793.679 67.0691C793.106 66.9353 792.5 66.7596 791.86 66.5419C791.22 66.3242 790.595 66.0738 789.986 65.7908C788.44 65.0732 787.197 64.2179 786.255 63.2251C785.336 62.2424 784.677 61.1823 784.279 60.0449C783.913 58.8958 783.797 57.6912 783.933 56.431C784.09 55.1809 784.461 53.9245 785.048 52.662ZM797.34 56.1074C797.51 55.6837 797.621 55.2456 797.672 54.7932C797.745 54.3508 797.722 53.9166 797.602 53.4906C797.505 53.0746 797.305 52.6777 797.004 52.2999C796.725 51.9321 796.303 51.6169 795.737 51.3541C795.193 51.1014 794.679 50.982 794.196 50.996C793.724 50.9882 793.286 51.076 792.883 51.2595C792.48 51.4429 792.107 51.7061 791.762 52.0489C791.45 52.3801 791.165 52.7373 790.908 53.1206L797.34 56.1074ZM817.329 62.2934C816.945 61.9824 816.484 61.636 815.946 61.2542C815.419 60.8507 814.818 60.4923 814.144 60.179C813.839 60.0375 813.454 59.8983 812.988 59.7614C812.554 59.6129 812.213 59.5208 811.965 59.485L805.87 72.611L801.005 70.3519L808.556 54.0914C809.568 54.1909 810.722 54.383 812.019 54.6676C813.348 54.9406 814.741 55.4156 816.2 56.0929C816.461 56.2141 816.766 56.3825 817.116 56.5978C817.476 56.7914 817.826 57.0068 818.166 57.2439C818.516 57.4593 818.855 57.6964 819.185 57.9553C819.525 58.1925 819.8 58.4261 820.011 58.6562L817.329 62.2934ZM834.528 75.4395C833.902 76.7891 833.13 77.9389 832.212 78.8889C831.305 79.8171 830.294 80.5121 829.18 80.9738C828.076 81.4138 826.901 81.6089 825.654 81.5591C824.428 81.5194 823.174 81.2014 821.889 80.605C820.627 80.0188 819.574 79.2654 818.732 78.3449C817.911 77.4344 817.312 76.4156 816.936 75.2883C816.57 74.1392 816.438 72.9136 816.54 71.6114C816.652 70.2874 817.021 68.9506 817.648 67.601C818.274 66.2514 819.052 65.1176 819.981 64.1995C820.932 63.2915 821.959 62.6175 823.063 62.1775C824.189 61.7476 825.365 61.5525 826.59 61.5922C827.837 61.6421 829.07 61.95 830.289 62.516C831.53 63.0921 832.561 63.8354 833.381 64.7458C834.224 65.6664 834.834 66.6903 835.21 67.8176C835.586 68.9449 835.723 70.1596 835.621 71.4618C835.519 72.764 835.155 74.0899 834.528 75.4395ZM829.565 73.135C830.263 71.633 830.504 70.316 830.289 69.1841C830.105 68.0405 829.458 67.2109 828.348 66.6954C827.238 66.1799 826.176 66.216 825.162 66.8037C824.159 67.3696 823.308 68.4036 822.611 69.9056C821.913 71.4075 821.662 72.7463 821.857 73.9218C822.062 75.0755 822.72 75.9101 823.83 76.4256C824.94 76.9411 825.991 76.8999 826.983 76.3021C828.007 75.6927 828.868 74.6369 829.565 73.135ZM844.254 77.0976C844.975 76.7976 845.718 76.4808 846.481 76.1473C847.267 75.8239 848.025 75.5013 848.756 75.1795C849.498 74.8359 850.192 74.5098 850.838 74.2012C851.506 73.9027 852.078 73.6392 852.555 73.4106L858.334 76.0942C856.564 76.8863 854.841 77.6342 853.164 78.3377C851.52 79.0295 849.747 79.7143 847.844 80.3922C848.224 81.2831 848.571 82.3039 848.883 83.4546C849.206 84.5834 849.491 85.7348 849.74 86.9087C849.989 88.0827 850.183 89.2314 850.323 90.3548C850.463 91.4782 850.551 92.4849 850.588 93.3751L845.004 90.7825C844.919 90.0548 844.804 89.2474 844.66 88.3604C844.548 87.4617 844.399 86.5587 844.212 85.6514C844.034 84.7223 843.809 83.8108 843.536 82.9167C843.285 82.0328 842.989 81.2468 842.647 80.5587L839.16 88.0686L834.295 85.8095L845.696 61.2555L850.925 62.7309L844.254 77.0976ZM872.091 92.8812C871.464 94.2308 870.692 95.3806 869.774 96.3305C868.867 97.2588 867.856 97.9537 866.742 98.4155C865.638 98.8555 864.463 99.0506 863.216 99.0007C861.991 98.961 860.736 98.643 859.452 98.0467C858.189 97.4604 857.136 96.707 856.294 95.7865C855.473 94.8761 854.874 93.8572 854.498 92.7299C854.132 91.5809 854 90.3552 854.102 89.053C854.214 87.7291 854.583 86.3923 855.21 85.0427C855.836 83.6931 856.614 82.5592 857.543 81.6411C858.494 80.7331 859.522 80.0591 860.626 79.6191C861.751 79.1893 862.927 78.9942 864.152 79.0339C865.399 79.0837 866.632 79.3916 867.851 79.9577C869.092 80.5338 870.123 81.2771 870.944 82.1875C871.786 83.108 872.396 84.1319 872.772 85.2592C873.148 86.3865 873.285 87.6013 873.183 88.9035C873.082 90.2057 872.717 91.5316 872.091 92.8812ZM867.128 90.5766C867.825 89.0746 868.066 87.7577 867.851 86.6257C867.667 85.4821 867.021 84.6525 865.91 84.1371C864.8 83.6216 863.738 83.6577 862.724 84.2454C861.721 84.8113 860.87 85.8452 860.173 87.3472C859.475 88.8492 859.224 90.1879 859.419 91.3634C859.624 92.5171 860.282 93.3518 861.392 93.8672C862.502 94.3827 863.553 94.3416 864.546 93.7438C865.569 93.1343 866.43 92.0786 867.128 90.5766ZM878.409 102.047C879.302 102.461 879.974 102.667 880.424 102.665C880.875 102.663 881.217 102.411 881.45 101.911C881.631 101.519 881.549 101.07 881.201 100.565C880.864 100.038 880.291 99.3616 879.484 98.5368C878.853 97.9 878.293 97.2827 877.803 96.6848C877.335 96.0971 876.98 95.4953 876.736 94.8796C876.503 94.2421 876.403 93.5738 876.437 92.8749C876.47 92.176 876.679 91.413 877.063 90.5858C877.811 88.975 879.001 87.9795 880.633 87.5994C882.265 87.2194 884.125 87.5145 886.215 88.4848C887.26 88.97 888.216 89.5329 889.083 90.1735C889.959 90.7924 890.63 91.3421 891.095 91.8226L888.488 95.216C888.013 94.7572 887.473 94.295 886.869 93.8293C886.287 93.3737 885.582 92.9539 884.755 92.5698C883.231 91.8622 882.272 91.9329 881.878 92.7819C881.787 92.9778 881.739 93.1671 881.733 93.3498C881.728 93.5325 881.788 93.7455 881.913 93.9889C882.048 94.2104 882.239 94.4841 882.484 94.8099C882.762 95.124 883.116 95.5003 883.548 95.9387C884.432 96.8258 885.132 97.627 885.647 98.3423C886.171 99.0358 886.524 99.7021 886.703 100.341C886.915 100.969 886.97 101.59 886.87 102.205C886.791 102.83 886.585 103.501 886.252 104.22C885.463 105.918 884.225 106.904 882.536 107.178C880.869 107.463 878.871 107.064 876.542 105.983C875.018 105.275 873.806 104.553 872.904 103.817C872.024 103.091 871.428 102.55 871.117 102.193L873.768 98.6216C874.444 99.3322 875.171 99.9876 875.951 100.588C876.741 101.166 877.56 101.653 878.409 102.047ZM892.95 84.666L885.455 86.7029L884.159 83.6802L891.252 80.5435L892.95 84.666ZM890.875 101.643C891.451 100.403 892.188 99.329 893.085 98.4226C894.014 97.5045 895.047 96.8196 896.183 96.368C897.329 95.8946 898.557 95.6711 899.868 95.6976C901.179 95.7241 902.531 96.0608 903.924 96.7077C904.838 97.1322 905.636 97.6084 906.317 98.1363C907.008 98.6425 907.642 99.2147 908.218 99.853L905.402 103.269C905.026 102.882 904.596 102.497 904.112 102.114C903.629 101.731 903.05 101.382 902.375 101.069C900.938 100.402 899.653 100.348 898.521 100.907C897.41 101.476 896.516 102.49 895.838 103.948C895.121 105.493 894.891 106.842 895.15 107.994C895.431 109.157 896.398 110.122 898.053 110.89C898.64 111.163 899.297 111.402 900.022 111.606C900.748 111.811 901.449 111.925 902.126 111.948L900.962 116.25C900.285 116.227 899.481 116.105 898.552 115.885C897.622 115.665 896.645 115.317 895.622 114.842C894.055 114.114 892.811 113.259 891.892 112.276C890.982 111.272 890.344 110.195 889.978 109.046C889.634 107.907 889.54 106.713 889.697 105.463C889.886 104.201 890.279 102.928 890.875 101.643ZM910.397 92.7675L902.902 94.8045L901.607 91.7817L908.699 88.6451L910.397 92.7675Z" fill="white"/>
<line x1="665.867" y1="27.5179" x2="705.867" y2="16.5179" stroke="white"/>
<line x1="931.821" y1="151.533" x2="970.82" y2="136.533" stroke="white"/>
<line x1="706.199" y1="16.5415" x2="752.199" y2="36.5415" stroke="white"/>
<path d="M917 113.5L970 136.5" stroke="white"/>
<line x1="247" y1="392.5" x2="399" y2="392.5" stroke="white"/>
<line x1="246" y1="434.5" x2="399" y2="434.5" stroke="white"/>
<line x1="393.5" y1="393" x2="393.5" y2="435" stroke="white"/>
<path d="M393.5 393L399.129 402.75H387.871L393.5 393Z" fill="#A7ADB8"/>
<path d="M630.53 5.88549L624.091 15.1207L619.312 4.92671L630.53 5.88549Z" fill="#A7ADB8"/>
<path d="M705.395 15.5429L716.65 15.8351L710.769 25.4357L705.395 15.5429Z" fill="#A7ADB8"/>
<path d="M2.37016 184.793L9.3962 175.996L13.5015 186.479L2.37016 184.793Z" fill="#A7ADB8"/>
<path d="M970.108 137.384L966.347 126.772L959.037 135.335L970.108 137.384Z" fill="#A7ADB8"/>
<path d="M393.5 435L399.129 425.25H387.871L393.5 435Z" fill="#A7ADB8"/>
</g>
<defs>
<clipPath id="clip0">
<rect width="974.328" height="437.236" fill="white"/>
</clipPath>
</defs>
</svg>
