<svg width="1132" height="784" viewBox="0 0 1132 784" fill="none" xmlns="http://www.w3.org/2000/svg">
<g clip-path="url(#clip0)">
<path opacity="0.1" d="M584.49 133.6C513.12 145.6 441.8 140.22 373.18 132.45C304.56 124.68 236.18 114.57 164.7 117.39C118.75 119.25 67.57 128.34 35.57 155.02C4.76 180.7 0.03 215.44 0 246.8C0 270.4 2 294.8 18.63 313.63C30.14 326.69 47.85 336.07 61.19 348.12C107.63 390.05 93.69 455.83 63.42 511.73C49.22 537.95 31.84 563.73 22.19 590.55C12.54 617.37 11.31 646.18 28.75 668.15C46.03 689.92 79.39 702.25 114.15 708.68C184.76 721.75 263.36 713.93 339.41 703.26C507.76 679.65 674.35 642.48 840.49 605.4C901.97 591.67 963.72 577.88 1022.95 558.02C1055.84 547.02 1089.32 533.19 1110.53 511.69C1137.45 484.38 1138.07 447.04 1111.98 424.69C1068.21 387.12 969.36 395.2 935.48 352.3C916.83 328.6 924.85 296.6 939.57 268.4C971.16 207.82 1032.37 148.05 1024.25 87.56C1018.67 46.02 976.75 11.56 920.66 2.56C861.87 -6.96001 786.44 10.63 752.66 52.32C717.97 95.21 647.51 123.02 584.49 133.6Z" fill="#FFE25A"/>
<path d="M854.68 107.09C853.47 110.97 852.25 114.85 850.68 118.62C847.995 125.172 844.605 131.412 840.57 137.23C837.949 141.059 835.131 144.751 832.13 148.29C828.37 152.72 824.18 157.18 822.85 162.84C822.08 166.11 822.34 169.53 822.01 172.84C821.68 176.15 820.61 179.72 817.9 181.72C815.97 183.15 813.5 183.58 811.13 183.96C809.43 184.23 807.31 184.31 806.42 182.84C806.12 182.237 805.963 181.573 805.96 180.9L805.55 176.01C805.46 174.96 805.09 173.6 804.03 173.55C802.97 173.5 802.44 174.91 801.54 175.55C800.34 176.39 798.54 175.55 797.88 174.28C797.333 172.909 797.294 171.387 797.77 169.99C798.499 167.206 799.81 164.608 801.617 162.367C803.423 160.126 805.684 158.294 808.25 156.99C810.031 156.268 811.739 155.377 813.35 154.33C814.987 152.907 816.343 151.191 817.35 149.27C826.63 133.99 835.96 118.63 842.5 102C843.797 99.0331 844.672 95.8994 845.1 92.69C845.42 89.41 844.91 86.13 844.7 82.84C844.314 76.9517 844.857 71.0393 846.31 65.32C846.631 63.814 847.199 62.3712 847.99 61.05C850.69 56.96 856.99 56.35 860.99 59.18C862.465 60.3113 863.687 61.7379 864.579 63.3686C865.471 64.9992 866.013 66.798 866.17 68.65C866.46 71.96 864.55 75.4 863.58 78.49C860.613 88.0367 857.647 97.57 854.68 107.09Z" fill="#A1616A"/>
<path opacity="0.05" d="M854.68 107.09C853.47 110.97 852.25 114.85 850.68 118.62C847.995 125.172 844.605 131.412 840.57 137.23C837.949 141.059 835.131 144.751 832.13 148.29C828.37 152.72 824.18 157.18 822.85 162.84C822.08 166.11 822.34 169.53 822.01 172.84C821.68 176.15 820.61 179.72 817.9 181.72C815.97 183.15 813.5 183.58 811.13 183.96C809.43 184.23 807.31 184.31 806.42 182.84C806.12 182.237 805.963 181.573 805.96 180.9L805.55 176.01C805.46 174.96 805.09 173.6 804.03 173.55C802.97 173.5 802.44 174.91 801.54 175.55C800.34 176.39 798.54 175.55 797.88 174.28C797.333 172.909 797.294 171.387 797.77 169.99C798.499 167.206 799.81 164.608 801.617 162.367C803.423 160.126 805.684 158.294 808.25 156.99C810.031 156.268 811.739 155.377 813.35 154.33C814.987 152.907 816.343 151.191 817.35 149.27C826.63 133.99 835.96 118.63 842.5 102C843.797 99.0331 844.672 95.8994 845.1 92.69C845.42 89.41 844.91 86.13 844.7 82.84C844.314 76.9517 844.857 71.0393 846.31 65.32C846.631 63.814 847.199 62.3712 847.99 61.05C850.69 56.96 856.99 56.35 860.99 59.18C862.465 60.3113 863.687 61.7379 864.579 63.3686C865.471 64.9992 866.013 66.798 866.17 68.65C866.46 71.96 864.55 75.4 863.58 78.49C860.613 88.0367 857.647 97.57 854.68 107.09Z" fill="black"/>
<path d="M912.98 270.47C911.169 271.091 909.246 271.319 907.34 271.14C907.2 269.58 905.1 269.23 903.54 269.31C902.785 269.285 902.038 269.457 901.37 269.81C900.98 270.06 900.68 270.43 900.3 270.68C899.624 271.055 898.863 271.251 898.09 271.25L889.97 271.93C886.35 272.24 882.58 272.53 879.19 271.23C878.513 271.02 877.912 270.617 877.46 270.07C876.54 268.75 877.46 266.86 878.73 265.91C880 264.96 881.64 264.51 882.92 263.53C885.74 261.38 886.13 257.36 887.62 254.15C888.673 252.113 889.98 250.218 891.51 248.51C892.612 247.043 893.899 245.726 895.34 244.59C898.59 242.23 902.34 242.28 906.17 241.94C908.87 241.7 911.41 241.55 913.35 243.94C915.74 246.94 914.79 252.94 914.64 256.45C914.452 261.159 913.897 265.847 912.98 270.47Z" fill="#514E7F"/>
<path opacity="0.05" d="M912.98 270.47C911.169 271.091 909.246 271.319 907.34 271.14C907.2 269.58 905.1 269.23 903.54 269.31C902.785 269.285 902.038 269.457 901.37 269.81C900.98 270.06 900.68 270.43 900.3 270.68C899.624 271.055 898.863 271.251 898.09 271.25L889.97 271.93C886.35 272.24 882.58 272.53 879.19 271.23C878.513 271.02 877.912 270.617 877.46 270.07C876.54 268.75 877.46 266.86 878.73 265.91C880 264.96 881.64 264.51 882.92 263.53C885.74 261.38 886.13 257.36 887.62 254.15C888.673 252.113 889.98 250.218 891.51 248.51C892.612 247.043 893.899 245.726 895.34 244.59C898.59 242.23 902.34 242.28 906.17 241.94C908.87 241.7 911.41 241.55 913.35 243.94C915.74 246.94 914.79 252.94 914.64 256.45C914.452 261.159 913.897 265.847 912.98 270.47Z" fill="black"/>
<path d="M909.7 112.51C912.18 113.31 913.26 116.4 912.8 118.98C912.34 121.56 910.8 123.76 909.53 126.04C905.91 132.51 904.35 139.91 901.31 146.66C899.04 151.71 895.97 156.37 893.72 161.43C891.47 166.49 890.1 172.2 891.45 177.56C892.12 180.17 893.45 182.56 894.25 185.13C895.091 187.915 895.641 190.781 895.89 193.68C896.991 203.528 897.189 213.456 896.48 223.34C896.475 224.545 896.223 225.736 895.74 226.84C895.23 227.84 894.35 228.84 894.74 229.84C894.91 230.25 895.27 230.55 895.46 230.95C895.98 232.07 894.94 233.26 893.99 234.06C894.158 234.362 894.386 234.626 894.659 234.838C894.933 235.049 895.246 235.203 895.58 235.29C894.897 235.725 894.372 236.368 894.082 237.124C893.793 237.881 893.753 238.71 893.97 239.49C894.82 239.61 894.87 240.91 894.34 241.58C893.81 242.25 892.97 242.68 892.59 243.45C892.366 244.077 892.391 244.766 892.659 245.376C892.926 245.986 893.417 246.47 894.03 246.73C895.278 247.216 896.642 247.32 897.95 247.03C900.191 246.728 902.404 246.25 904.57 245.6C905.285 245.418 905.963 245.11 906.57 244.69C907.657 243.633 908.304 242.204 908.38 240.69C908.875 236.62 909.026 232.515 908.83 228.42C908.47 208.58 908.83 188.72 909.69 168.89C910.04 160.89 912.44 153.14 915.52 145.78C917.234 142.004 919.136 138.316 921.22 134.73C925.66 126.6 929.57 117.6 928.57 108.32C928.46 107.32 928.09 106.13 927.11 105.97C926.723 105.928 926.332 105.994 925.98 106.16C923.924 107.119 921.936 108.218 920.03 109.45C916.884 111.289 913.34 112.339 909.7 112.51V112.51Z" fill="#464353"/>
<path opacity="0.05" d="M909.7 112.51C912.18 113.31 913.26 116.4 912.8 118.98C912.34 121.56 910.8 123.76 909.53 126.04C905.91 132.51 904.35 139.91 901.31 146.66C899.04 151.71 895.97 156.37 893.72 161.43C891.47 166.49 890.1 172.2 891.45 177.56C892.12 180.17 893.45 182.56 894.25 185.13C895.091 187.915 895.641 190.781 895.89 193.68C896.991 203.528 897.189 213.456 896.48 223.34C896.475 224.545 896.223 225.736 895.74 226.84C895.23 227.84 894.35 228.84 894.74 229.84C894.91 230.25 895.27 230.55 895.46 230.95C895.98 232.07 894.94 233.26 893.99 234.06C894.158 234.362 894.386 234.626 894.659 234.838C894.933 235.049 895.246 235.203 895.58 235.29C894.897 235.725 894.372 236.368 894.082 237.124C893.793 237.881 893.753 238.71 893.97 239.49C894.82 239.61 894.87 240.91 894.34 241.58C893.81 242.25 892.97 242.68 892.59 243.45C892.366 244.077 892.391 244.766 892.659 245.376C892.926 245.986 893.417 246.47 894.03 246.73C895.278 247.216 896.642 247.32 897.95 247.03C900.191 246.728 902.404 246.25 904.57 245.6C905.285 245.418 905.963 245.11 906.57 244.69C907.657 243.633 908.304 242.204 908.38 240.69C908.875 236.62 909.026 232.515 908.83 228.42C908.47 208.58 908.83 188.72 909.69 168.89C910.04 160.89 912.44 153.14 915.52 145.78C917.234 142.004 919.136 138.316 921.22 134.73C925.66 126.6 929.57 117.6 928.57 108.32C928.46 107.32 928.09 106.13 927.11 105.97C926.723 105.928 926.332 105.994 925.98 106.16C923.924 107.119 921.936 108.218 920.03 109.45C916.884 111.289 913.34 112.339 909.7 112.51V112.51Z" fill="black"/>
<path d="M943.23 88.4C944.52 87.5622 946.013 87.0888 947.55 87.03C949.33 87.12 950.85 88.29 952.24 89.41C953.887 90.674 955.45 92.0436 956.92 93.51C959.958 96.7575 962.075 100.757 963.052 105.095C964.03 109.433 963.832 113.954 962.48 118.19C961.01 122.6 958.32 126.49 955.66 130.3L950.26 138.06C942.02 149.89 933.78 161.72 925.15 173.27C925.148 173.554 925.056 173.83 924.887 174.058C924.718 174.287 924.481 174.455 924.21 174.54C923.89 174.62 923.51 174.61 923.32 174.87C923.235 175.033 923.197 175.217 923.21 175.4C923.23 176.257 923.392 177.106 923.69 177.91C923.83 178.17 923.866 178.474 923.79 178.76C923.51 179.41 922.33 179.05 921.95 179.65C921.7 180.05 922.01 180.57 922.34 180.91C922.67 181.25 923.08 181.63 923.02 182.1C922.96 182.57 922.14 183.1 922.17 183.68C922.17 184.02 922.47 184.28 922.68 184.55C922.974 184.98 923.108 185.5 923.059 186.019C923.009 186.538 922.78 187.023 922.41 187.39C921.84 193.03 924.91 198.39 925.52 204.01C926.52 212.89 922.47 221.56 921.98 230.47C922.009 231.473 921.818 232.469 921.42 233.39C920.59 234.93 918.42 235.86 918.53 237.61C918.687 238.328 918.887 239.036 919.13 239.73C919.3 240.73 918.83 241.73 918.81 242.73C918.79 243.73 919.67 244.96 920.62 244.57C919.913 246.923 919.283 249.3 918.73 251.7L899.83 253.26C899.626 251.561 899.683 249.841 900 248.16C900.38 246.34 901.21 244.63 901.64 242.82C901.92 241.928 901.997 240.986 901.868 240.061C901.738 239.135 901.404 238.25 900.89 237.47C901.384 237.478 901.866 237.311 902.248 236.998C902.631 236.685 902.89 236.246 902.98 235.76C903.155 234.788 903.155 233.792 902.98 232.82C902.48 227.89 904.55 223.03 904.48 218.08C904.43 214.18 903.06 210.44 902.37 206.6C900.89 198.4 902.43 189.51 898.78 182.03C896.57 177.51 893.51 172.51 895.99 168.14C897.21 165.98 899.37 164.5 900.78 162.46C901.928 160.535 902.79 158.453 903.34 156.28C906.25 147.28 910.96 138.91 915.09 130.36C916.212 128.226 917.046 125.953 917.57 123.6C917.864 121.52 917.967 119.418 917.88 117.32C917.888 113.543 918.122 109.769 918.58 106.02C918.673 104.379 919.142 102.781 919.95 101.35C920.768 100.269 921.786 99.3554 922.95 98.66C929.15 94.35 936.57 91.92 943.23 88.4Z" fill="#464353"/>
<path d="M920.57 277.39C918.755 278.011 916.829 278.239 914.92 278.06C914.78 276.51 912.69 276.15 911.13 276.23C910.372 276.206 909.621 276.378 908.95 276.73C908.57 276.98 908.27 277.35 907.88 277.6C907.204 277.976 906.443 278.172 905.67 278.17L897.56 278.86C893.93 279.16 890.17 279.45 886.77 278.15C886.093 277.946 885.493 277.542 885.05 276.99C884.12 275.67 885.05 273.79 886.32 272.83C887.59 271.87 889.23 271.43 890.5 270.46C893.32 268.3 893.71 264.29 895.21 261.07C896.257 259.035 897.561 257.143 899.09 255.44C900.197 253.975 901.484 252.655 902.92 251.51C906.18 249.15 909.92 249.2 913.75 248.87C916.46 248.62 919 248.47 920.93 250.87C923.33 253.87 922.37 259.87 922.23 263.38C922.042 268.086 921.487 272.77 920.57 277.39V277.39Z" fill="#514E7F"/>
<path d="M836.81 55.66C847.149 55.66 855.53 47.2788 855.53 36.94C855.53 26.6012 847.149 18.22 836.81 18.22C826.471 18.22 818.09 26.6012 818.09 36.94C818.09 47.2788 826.471 55.66 836.81 55.66Z" fill="#A1616A"/>
<path d="M854.46 42.5C857.15 44.81 861 44.99 864.52 45.35C872.048 46.1122 879.376 48.2297 886.15 51.6C887.092 51.997 887.943 52.5823 888.65 53.32C889.259 54.1094 889.692 55.0197 889.92 55.99C890.559 58.0971 890.8 60.3047 890.63 62.5C890.384 64.6322 889.771 66.7059 888.82 68.63C886.218 74.0035 882.21 78.5719 877.22 81.85C876.34 82.5053 875.342 82.9841 874.28 83.26C871.82 83.77 869.44 82.35 867.01 81.71C864.799 81.1321 862.468 81.2085 860.3 81.93C858.3 82.6 856.11 83.85 854.13 83.02C852.862 82.3075 851.877 81.1815 851.34 79.83C849.427 76.2064 847.72 72.4771 846.23 68.66C845.696 67.1762 845.078 65.7239 844.38 64.31C842.21 60.17 838.46 56.98 836.59 52.7C836.398 52.3717 836.282 52.0045 836.251 51.6255C836.22 51.2464 836.274 50.8652 836.41 50.51C836.764 50.0503 837.243 49.7029 837.79 49.51C840.558 47.9154 843.078 45.9243 845.27 43.6C846.5 42.43 848.76 39.23 850.53 38.96C852.57 38.6 853.12 41.34 854.46 42.5Z" fill="#A1616A"/>
<path d="M854.03 80.54C856.2 81.54 858.75 81.11 861.11 80.62C867.17 79.36 873.3 78.07 878.91 75.45C880.663 74.7792 882.181 73.6115 883.28 72.09C883.964 70.7895 884.379 69.3645 884.5 67.9L885.5 60.9C885.86 58.47 885.23 56.22 885.18 53.76C885.142 53.4874 885.158 53.2098 885.229 52.9437C885.299 52.6775 885.422 52.4281 885.59 52.21C885.758 52.0679 885.952 51.9603 886.161 51.8934C886.371 51.8265 886.591 51.8015 886.81 51.82C889.63 51.82 891.33 54.82 893.3 56.82C894.441 57.9693 895.801 58.8773 897.3 59.49C899.09 60.23 901.3 60.75 902.05 62.55C902.35 63.3 902.31 64.15 902.63 64.9C903.89 67.9 909.26 66.9 910.63 69.9C911.01 70.74 910.99 71.79 911.63 72.45C912.27 73.11 913.47 73.1 914.46 73.26C918.36 73.9 920.26 78.42 923.6 80.55C926.41 82.34 930.03 82.3 933.05 83.7C934.74 84.48 936.23 85.7 938.05 86.21C939.87 86.72 941.84 86.45 943.75 86.5C943.954 86.4808 944.159 86.5037 944.354 86.5674C944.548 86.631 944.727 86.7341 944.88 86.87C944.998 87.0513 945.076 87.2556 945.109 87.4695C945.142 87.6833 945.128 87.9017 945.07 88.11C944.143 94.0241 941.691 99.5948 937.956 104.273C934.221 108.951 929.332 112.576 923.77 114.79C923.129 114.997 922.519 115.294 921.96 115.67C920.26 116.94 919.96 119.67 918.03 120.57C917.334 120.815 916.583 120.863 915.861 120.707C915.139 120.552 914.474 120.2 913.94 119.69C912.875 118.665 911.873 117.576 910.94 116.43C909.178 114.589 906.865 113.371 904.35 112.96C902.03 112.59 899.43 112.86 897.56 111.44C896.793 110.728 896.078 109.963 895.42 109.15C894.022 107.852 892.366 106.864 890.56 106.25C885.631 104.304 880.421 103.162 875.13 102.87C870.21 102.6 865.13 103.04 860.48 101.44C859.268 101.069 858.152 100.437 857.21 99.59C856.205 98.5088 855.459 97.2126 855.03 95.8C853.332 90.8956 852.986 85.6241 854.03 80.54V80.54Z" fill="#FFE25A"/>
<path d="M878.15 52.95C876.77 52.83 875.39 53 874 52.95C872.37 52.95 870.76 52.55 869.13 52.54C866.549 52.5837 864.05 53.4501 861.996 55.0132C859.942 56.5762 858.44 58.7542 857.71 61.23C857.573 61.6255 857.548 62.0515 857.64 62.46C857.694 62.6617 857.818 62.8374 857.991 62.9548C858.164 63.0723 858.373 63.1239 858.58 63.1C859.124 61.624 859.828 60.2123 860.68 58.89C862.238 56.7784 864.449 55.2391 866.97 54.51C869.484 53.8029 872.131 53.7069 874.69 54.23C875.75 54.43 876.8 54.72 877.84 55L882.84 56.38C883.76 56.63 884.68 56.88 885.58 57.21C886.27 57.47 887.45 58.42 888.13 58.46C889.05 58.46 888.3 57.66 887.89 57.12C887.079 56.0075 885.938 55.1783 884.63 54.75C882.551 53.8899 880.375 53.2855 878.15 52.95V52.95Z" fill="#FFE25A"/>
<path d="M865.57 109.18C864.36 113.06 863.15 116.95 861.63 120.72C858.913 127.276 855.49 133.516 851.42 139.33C848.799 143.159 845.981 146.851 842.98 150.39C839.22 154.82 834.98 159.28 833.7 164.94C832.93 168.21 833.19 171.63 832.87 174.94C832.55 178.25 831.46 181.82 828.76 183.82C826.82 185.25 824.35 185.68 821.98 186.05C820.29 186.33 818.17 186.41 817.28 184.94C816.977 184.338 816.816 183.674 816.81 183L816.41 178.11C816.32 177.11 815.94 175.7 814.89 175.65C813.84 175.6 813.29 177.01 812.39 177.65C811.19 178.49 809.39 177.65 808.73 176.38C808.182 175.005 808.146 173.479 808.63 172.08C809.359 169.297 810.669 166.7 812.474 164.46C814.278 162.219 816.537 160.386 819.1 159.08C820.881 158.352 822.592 157.462 824.21 156.42C825.847 154.997 827.204 153.281 828.21 151.36C837.49 136.08 846.82 120.72 853.37 104.09C854.661 101.118 855.532 97.9816 855.96 94.77C856.28 91.5 855.78 88.21 855.56 84.93C855.171 79.0411 855.718 73.1278 857.18 67.41C857.497 65.9026 858.065 64.4591 858.86 63.14C861.55 59.05 867.86 58.44 871.86 61.27C873.334 62.4025 874.557 63.8292 875.45 65.4595C876.344 67.0897 876.889 68.888 877.05 70.74C877.34 74.05 875.42 77.49 874.46 80.58C871.487 90.12 868.523 99.6533 865.57 109.18Z" fill="#A1616A"/>
<path d="M809.57 23.71C809.42 22.15 810.82 20.71 812.41 19.71C814.084 18.8286 815.692 17.8259 817.22 16.71C818.64 15.48 819.41 13.89 820.84 12.65C822.449 11.4204 824.279 10.5106 826.23 9.97002C830.385 8.50827 834.747 7.72163 839.15 7.64001C843.61 7.64001 848.15 8.64001 851.51 10.91C852.327 11.4208 853.04 12.0826 853.61 12.86C854.138 13.82 854.478 14.8723 854.61 15.96C855.408 19.3152 856.489 22.5969 857.84 25.77C859.23 29.3 860.71 32.96 863.98 35.69C867.48 38.6 872.83 40.28 875.14 43.81C875.393 44.122 875.571 44.4883 875.66 44.8803C875.748 45.2723 875.745 45.6795 875.65 46.07C875.32 46.97 874.26 47.57 873.28 48.13C867.59 51.39 862.7 55.62 860.17 60.67C857.64 65.72 857.73 71.67 861.32 76.32C862.64 78.04 864.46 80.08 863.17 81.81C861.17 84.44 854.48 82.93 852.92 85.72C852.43 86.6 852.72 87.62 852.71 88.58C852.71 91.5 849.91 94.09 846.5 95.44C843.09 96.79 839.14 97.11 835.3 97.28C834.281 94.9886 834.18 92.3932 835.02 90.03C835.275 89.5235 835.376 88.9533 835.31 88.39C835.028 87.7553 834.583 87.2067 834.02 86.8C829.92 82.93 830.78 77.22 833.25 72.61C835.72 68 839.55 63.79 840.98 58.94C841.68 56.53 841.69 53.82 839.77 51.83C838.677 50.8649 837.499 50.0013 836.25 49.25C834.011 47.734 832.288 45.5711 831.31 43.05C830.16 39.86 830.31 36.05 826.97 33.91C823.76 31.91 819.25 32.48 815.7 31.11C812.98 30.14 809.8 25.99 809.57 23.71Z" fill="#464353"/>
<path d="M475.93 108.19C475.18 116.36 481.36 124.29 479.56 132.29C479.17 134 478.44 135.62 478.17 137.35C477.42 142.1 480.25 146.59 482.96 150.57L506.19 184.67C507.128 186.165 508.242 187.542 509.51 188.77C513.96 192.77 520.62 192.3 526.45 193.49C530.55 194.317 534.422 196.023 537.8 198.49C537.876 198.545 537.94 198.615 537.989 198.696C538.038 198.776 538.07 198.866 538.084 198.959C538.098 199.052 538.093 199.147 538.07 199.238C538.047 199.329 538.006 199.415 537.95 199.49C536.99 200.81 535.715 201.868 534.24 202.566C532.766 203.265 531.139 203.583 529.51 203.49C528.9 204.29 529.51 205.49 530.35 206.05C531.6 206.92 533.35 207.15 533.57 209.26C533.65 209.997 533.5 210.741 533.14 211.39C532.204 212.821 530.748 213.832 529.08 214.21C521.08 216.67 512.34 212.35 506.32 206.47C500.3 200.59 495.98 193.17 490.07 187.18C486.8 183.87 483.07 181.04 479.71 177.83C472.99 171.42 467.76 163.64 462.71 155.83C461.059 153.565 459.814 151.031 459.03 148.34C458.41 145.69 458.69 142.87 457.97 140.24C457.03 136.78 454.51 134.03 452.4 131.13C448.28 125.45 445.53 118.51 446.07 111.51C446.61 104.51 450.95 97.6 457.57 95.25C459.616 94.4345 461.87 94.2978 464 94.86C466.7 95.69 468.69 97.93 470.55 100.07L474.95 105.17C476.058 106.286 476.931 107.612 477.52 109.07C477.803 109.803 477.868 110.603 477.709 111.372C477.549 112.142 477.171 112.85 476.62 113.41" fill="#FBBEBE"/>
<path opacity="0.05" d="M475.93 108.19C475.18 116.36 481.36 124.29 479.56 132.29C479.17 134 478.44 135.62 478.17 137.35C477.42 142.1 480.25 146.59 482.96 150.57L506.19 184.67C507.128 186.165 508.242 187.542 509.51 188.77C513.96 192.77 520.62 192.3 526.45 193.49C530.55 194.317 534.422 196.023 537.8 198.49C537.876 198.545 537.94 198.615 537.989 198.696C538.038 198.776 538.07 198.866 538.084 198.959C538.098 199.052 538.093 199.147 538.07 199.238C538.047 199.329 538.006 199.415 537.95 199.49C536.99 200.81 535.715 201.868 534.24 202.566C532.766 203.265 531.139 203.583 529.51 203.49C528.9 204.29 529.51 205.49 530.35 206.05C531.6 206.92 533.35 207.15 533.57 209.26C533.65 209.997 533.5 210.741 533.14 211.39C532.204 212.821 530.748 213.832 529.08 214.21C521.08 216.67 512.34 212.35 506.32 206.47C500.3 200.59 495.98 193.17 490.07 187.18C486.8 183.87 483.07 181.04 479.71 177.83C472.99 171.42 467.76 163.64 462.71 155.83C461.059 153.565 459.814 151.031 459.03 148.34C458.41 145.69 458.69 142.87 457.97 140.24C457.03 136.78 454.51 134.03 452.4 131.13C448.28 125.45 445.53 118.51 446.07 111.51C446.61 104.51 450.95 97.6 457.57 95.25C459.616 94.4345 461.87 94.2978 464 94.86C466.7 95.69 468.69 97.93 470.55 100.07L474.95 105.17C476.058 106.286 476.931 107.612 477.52 109.07C477.803 109.803 477.868 110.603 477.709 111.372C477.549 112.142 477.171 112.85 476.62 113.41" fill="black"/>
<path d="M458.35 318.49C463.42 321.58 469.74 321.77 475.64 321.05C476.59 320.93 477.72 320.86 478.33 321.59C479.21 322.66 478.17 324.22 477.09 325.08C473.606 327.693 469.514 329.376 465.2 329.97C461.351 330.512 457.467 330.77 453.58 330.74C442.98 330.92 432.32 331.1 421.82 329.57C421.215 329.527 420.625 329.356 420.09 329.07C419.422 328.587 418.956 327.875 418.78 327.07C418.06 324.35 419.45 321.41 421.54 319.52C423.63 317.63 426.32 316.52 428.94 315.52L438.17 311.93C440.33 311.09 443.8 308.85 446.17 309.02C450.5 309.36 454.68 316.34 458.35 318.49Z" fill="#3F3D56"/>
<path opacity="0.05" d="M458.35 318.49C463.42 321.58 469.74 321.77 475.64 321.05C476.59 320.93 477.72 320.86 478.33 321.59C479.21 322.66 478.17 324.22 477.09 325.08C473.606 327.693 469.514 329.376 465.2 329.97C461.351 330.512 457.467 330.77 453.58 330.74C442.98 330.92 432.32 331.1 421.82 329.57C421.215 329.527 420.625 329.356 420.09 329.07C419.422 328.587 418.956 327.875 418.78 327.07C418.06 324.35 419.45 321.41 421.54 319.52C423.63 317.63 426.32 316.52 428.94 315.52L438.17 311.93C440.33 311.09 443.8 308.85 446.17 309.02C450.5 309.36 454.68 316.34 458.35 318.49Z" fill="black"/>
<path d="M451.91 196.03C455.74 201.14 459.72 207.03 458.77 213.36C458.26 216.77 456.35 219.78 454.95 222.93C453.199 227.264 451.902 231.768 451.08 236.37C449.64 243.06 448.2 249.77 447.32 256.56C446.32 264.23 451.03 286.43 451.47 294.15C451.57 296.01 451.79 298.03 453.08 299.37C453.59 299.9 454.27 300.37 454.49 301.02C454.629 301.685 454.522 302.378 454.19 302.97C452.02 307.85 447.59 311.48 442.67 313.56C437.75 315.64 425.78 319.22 420.44 319.4C419.732 319.483 419.014 319.39 418.35 319.13C417.632 318.696 417.066 318.049 416.73 317.28C412.88 309.9 416.58 283.66 416.52 275.34C416.52 268.39 414.83 261.49 415.14 254.55C415.38 248.98 416.87 243.55 417.42 237.99C418.31 228.88 416.63 219.74 414.96 210.74C413.68 203.85 412.39 196.95 410.75 190.13C409.75 185.98 408.59 181.78 406.3 178.13C404.49 175.26 402.03 172.87 399.97 170.18C394.232 162.664 391.681 153.191 392.87 143.81C392.99 142.88 406.2 147.15 407.34 147.65C412.077 149.664 416.436 152.471 420.23 155.95C423.23 158.85 425.69 162.74 428.36 166C432.14 170.6 435.87 175.24 439.55 179.92C443.73 185.26 447.85 190.63 451.91 196.03Z" fill="#464353"/>
<path opacity="0.05" d="M451.91 195.72C455.74 200.84 459.72 206.72 458.77 213.06C458.26 216.47 456.35 219.47 454.95 222.62C453.199 226.954 451.902 231.458 451.08 236.06C449.64 242.76 448.2 249.46 447.32 256.25C446.32 263.93 451.03 286.12 451.47 293.85C451.57 295.71 451.79 297.73 453.08 299.07C453.59 299.59 454.27 300.02 454.49 300.71C454.629 301.375 454.522 302.068 454.19 302.66C452.02 307.54 447.59 311.18 442.67 313.26C437.75 315.34 425.78 317.26 420.44 317.42C419.732 317.503 419.014 317.41 418.35 317.15C417.632 316.716 417.066 316.069 416.73 315.3C412.88 307.92 416.58 283.35 416.52 275.03C416.52 268.08 414.83 261.19 415.14 254.24C415.38 248.67 416.87 243.24 417.42 237.68C418.31 228.58 416.63 219.43 414.96 210.44C413.68 203.54 412.39 196.64 410.75 189.83C409.75 185.67 408.59 181.47 406.3 177.83C404.49 174.97 402.03 172.57 399.97 169.89C394.229 162.371 391.679 152.895 392.87 143.51C392.99 142.59 406.2 146.86 407.34 147.36C412.081 149.367 416.441 152.175 420.23 155.66C423.23 158.56 425.69 162.45 428.36 165.66C432.14 170.26 435.87 174.9 439.55 179.58C443.73 184.927 447.85 190.307 451.91 195.72Z" fill="black"/>
<path d="M494.6 83.52C506.491 83.52 516.13 73.8807 516.13 61.99C516.13 50.0993 506.491 40.46 494.6 40.46C482.709 40.46 473.07 50.0993 473.07 61.99C473.07 73.8807 482.709 83.52 494.6 83.52Z" fill="#FBBEBE"/>
<path d="M475.22 61.09C473.235 64.2675 470.631 67.0128 467.563 69.1621C464.494 71.3114 461.024 72.8207 457.36 73.6L458.98 79.47C461.78 89.6 464.92 100.31 472.75 107.33C471.89 103.9 473 100.22 474.93 97.26C477.007 94.3924 479.467 91.822 482.24 89.62L494.63 78.84C495.004 78.5726 495.32 78.2325 495.56 77.84C495.865 77.0828 495.865 76.2371 495.56 75.48C493.98 70.57 489.47 67.48 485.83 64.19C483.988 62.4696 482.341 60.5514 480.92 58.47C478.38 54.93 476.85 58.46 475.22 61.09Z" fill="#FBBEBE"/>
<path d="M522.97 40.35L523.45 36.35C520.05 37.23 516.83 34.35 514.66 31.35C512.49 28.35 510.47 24.83 507.16 23.59C503.16 22.08 498.88 24.5 495.04 26.5C490.736 28.8972 486.009 30.4421 481.12 31.05C480.341 31.0813 479.568 31.2089 478.82 31.43C476.32 32.32 475.14 35.43 474.77 38.3C474.4 41.17 474.51 44.17 473.27 46.71C472.34 48.63 470.73 50.07 469.75 51.96C467.12 57.05 469.66 64.01 466.88 69.01L473.78 62.69C474.42 62.11 475.31 61.5 476 61.99C476.69 62.48 476.6 63.22 476.82 63.9C477.49 65.9 479.95 66.45 481.74 65.68C483.53 64.91 484.82 63.21 486.12 61.68C489.17 58.08 492.81 54.92 497.12 53.38C498.99 52.6631 500.991 52.3538 502.99 52.4728C504.988 52.5918 506.939 53.1363 508.71 54.07C511.93 55.89 514.29 60.13 518.24 60.28C523.65 60.48 525.9 50.41 528.4 46.43C527.486 45.7384 526.844 44.7483 526.584 43.632C526.325 42.5157 526.465 41.3437 526.98 40.32C526.57 40.15 523.04 39.73 522.97 40.35Z" fill="#464353"/>
<path d="M433.24 318.31C437.489 322.115 443.017 324.176 448.72 324.08C450.17 324.08 452.18 324.36 452.19 325.81C452.156 326.241 452.008 326.656 451.76 327.01C449.959 330.014 447.109 332.245 443.76 333.27C440.65 334.21 437.34 334.06 434.1 333.89L424.65 333.4C422.86 333.31 421.07 333.21 419.29 333C417.51 332.79 415.59 332.4 413.74 332.13C409.181 331.479 404.57 331.261 399.97 331.48C398.76 331.53 397.34 331.48 396.59 330.57C395.84 329.66 396.24 327.98 396.51 326.65C397.07 323.91 396.51 321.04 397.03 318.29C397.94 313.47 402.09 309.77 406.68 308.02C410.93 306.4 418.47 304.55 422.49 307.24C426.83 310.14 429.42 314.86 433.24 318.31Z" fill="#3F3D56"/>
<path d="M423.88 156.7C423.04 160.7 419.2 163.7 419.09 167.75C419 170.99 421.31 173.75 422.97 176.49C424.558 179.37 425.896 182.381 426.97 185.49C430.116 193.543 434.017 201.281 438.62 208.6C440.84 212.11 443.32 215.93 442.81 220.06C442.461 221.987 441.784 223.841 440.81 225.54L434.16 238.75C432.7 241.388 431.562 244.191 430.77 247.1C430.19 249.61 430.13 252.21 429.77 254.77C428.72 262.87 424.92 271.03 427.17 278.89C427.36 279.56 428.07 280.38 428.59 279.89C426.4 283.99 424.59 288.13 424.8 292.78C424.89 295.22 425.64 297.78 424.73 300.04C424.221 300.922 423.882 301.893 423.73 302.9C423.73 303.57 424.04 304.2 424.11 304.9C424.3 306.77 422.58 308.33 420.8 308.9C419.02 309.47 417.07 309.46 415.27 309.99C411.81 310.99 409.34 313.99 406.37 316.07C403.366 318.155 399.816 319.313 396.16 319.4C395.638 319.455 395.111 319.351 394.65 319.1C394.389 318.871 394.18 318.59 394.035 318.274C393.89 317.959 393.814 317.617 393.81 317.27C393.652 315.614 393.903 313.945 394.542 312.409C395.18 310.873 396.185 309.517 397.47 308.46C398.032 308.104 398.499 307.617 398.83 307.04C398.991 306.526 399.032 305.982 398.95 305.45C398.41 298.183 398.54 290.883 399.34 283.64C399.701 281.342 399.818 279.013 399.69 276.69C399.5 274.76 398.92 272.84 399.13 270.91C399.34 268.98 400.32 267.24 400.9 265.38C401.9 262.08 401.65 258.54 401.75 255.08C401.93 249.08 403.3 243.2 404.67 237.36C405.21 235.07 405.81 232.66 407.43 230.96C408.81 229.52 411.05 228.14 410.53 226.21C410.24 225.5 409.808 224.857 409.26 224.32C408.617 223.513 408.145 222.583 407.871 221.588C407.598 220.593 407.53 219.552 407.67 218.53C407.085 218.686 406.464 218.631 405.916 218.375C405.367 218.119 404.926 217.678 404.67 217.13C393.86 212.04 385.12 201.84 381.27 190.52C381.054 189.685 380.717 188.887 380.27 188.15C379.27 186.75 377.53 186.15 375.99 185.37C371.15 182.94 367.8 178.37 364.73 173.9C362.95 171.31 361.16 168.63 360.39 165.57C359.969 163.598 359.768 161.586 359.79 159.57L359.52 149.15C359.466 148.477 359.533 147.799 359.72 147.15C359.978 146.528 360.363 145.966 360.85 145.5C363.792 142.364 367.667 140.26 371.9 139.5C374.73 139 377.63 139.09 380.5 138.86C386.07 138.39 391.57 136.67 397.15 137.07C405.9 137.72 413.7 143.78 417.82 151.53C419.24 154.29 420.77 156.65 423.88 156.7Z" fill="#464353"/>
<path d="M472.48 88.94C472.356 90.5475 472.574 92.1629 473.12 93.68C473.79 95.14 475.51 96.27 477.01 95.68C476.55 94.68 477.75 93.5 478.87 93.62C479.417 93.7436 479.926 93.9985 480.353 94.3626C480.78 94.7267 481.112 95.1891 481.32 95.71C482.064 97.1962 482.317 98.8809 482.04 100.52C481.68 102.52 480.5 104.52 480.81 106.57C481.06 108.27 482.31 109.97 481.64 111.57C481.209 112.289 480.669 112.937 480.04 113.49C479.163 114.569 478.734 115.943 478.84 117.329C478.946 118.715 479.579 120.007 480.61 120.94L463.83 121.28C464.45 124.08 463.19 126.95 461.75 129.44C457.722 136.285 452.163 142.104 445.509 146.441C438.856 150.779 431.288 153.516 423.4 154.44C423.826 154.69 424.192 155.03 424.47 155.438C424.749 155.846 424.934 156.311 425.011 156.798C425.089 157.286 425.057 157.785 424.918 158.259C424.78 158.733 424.538 159.171 424.21 159.54C422.84 160.89 420.53 160.73 418.82 159.84C417.11 158.95 415.77 157.51 414.2 156.39C411.447 154.433 408.083 153.528 404.72 153.84C402.62 154.04 400.58 154.71 398.47 154.84C392.26 155.17 386.91 150.7 380.97 148.84C376.61 147.5 371.67 147.51 367.97 144.79C366.4 143.62 365.1 141.69 365.56 139.79C365.958 138.695 366.577 137.694 367.38 136.85C369.48 134.13 370.72 130.85 372.23 127.76C375.239 121.661 379.363 116.18 384.39 111.6C388.175 108.287 392.184 105.239 396.39 102.48C397.409 101.714 398.497 101.045 399.64 100.48C401.167 99.9824 402.658 99.3776 404.1 98.67C406.1 97.43 407.21 95.24 408.73 93.47C412.05 89.59 417.16 87.81 421.26 84.76C424.01 82.71 426.44 80.01 429.72 79.02C431.31 78.54 433.02 78.5 434.61 78.02C438.24 76.92 440.88 73.7 444.43 72.4C447.25 71.4 450.35 71.64 453.33 71.27C456.608 70.8635 459.74 69.6732 462.46 67.8C463.365 67.0743 464.377 66.494 465.46 66.08C469.95 64.71 470.32 73.08 470.74 75.99C471.36 80.29 472.48 84.6 472.48 88.94Z" fill="#FFE25A"/>
<path d="M468.09 117.04C467.34 125.21 473.51 133.14 471.72 141.14C471.33 142.85 470.59 144.47 470.32 146.19C469.58 150.94 472.41 155.44 475.12 159.42L498.35 193.51C499.282 195.009 500.397 196.387 501.67 197.61C506.12 201.56 512.78 201.15 518.61 202.33C522.709 203.161 526.58 204.867 529.96 207.33C530.107 207.447 530.205 207.615 530.232 207.8C530.26 207.986 530.216 208.175 530.11 208.33C529.149 209.648 527.873 210.705 526.399 211.404C524.925 212.103 523.299 212.421 521.67 212.33C521.06 213.13 521.67 214.33 522.51 214.89C523.76 215.75 525.51 215.98 525.72 218.1C525.808 218.837 525.661 219.582 525.3 220.23C524.362 221.659 522.907 222.67 521.24 223.05C513.24 225.51 504.5 221.19 498.48 215.31C492.46 209.43 488.14 202.01 482.23 196.02C478.96 192.71 475.23 189.87 471.87 186.66C465.15 180.26 459.92 172.47 454.87 164.66C453.219 162.395 451.974 159.861 451.19 157.17C450.57 154.51 450.85 151.7 450.13 149.06C449.19 145.61 446.66 142.86 444.56 139.96C440.44 134.28 437.68 127.34 438.23 120.34C438.78 113.34 443.1 106.45 449.7 104.07C451.746 103.255 454 103.118 456.13 103.68C458.84 104.51 460.83 106.75 462.68 108.89L467.09 113.98C468.195 115.102 469.068 116.431 469.66 117.89C469.944 118.624 470.009 119.425 469.848 120.195C469.686 120.965 469.305 121.672 468.75 122.23" fill="#FBBEBE"/>
<path d="M456.34 83.47C459.4 83.65 462.75 83.96 464.91 86.13C465.812 87.1331 466.542 88.2786 467.07 89.52C469.17 93.78 471.2 98.24 471.36 102.99C471.48 106.79 470.36 110.5 469.8 114.26C469.32 117.38 470.54 120.57 470.8 123.72C467.01 122.57 462.01 120.99 458.58 119.02C456.323 117.548 453.924 116.306 451.42 115.31C447.78 114.09 441.64 116.18 438.2 117.88C438.01 115.45 439.84 111.21 439.65 108.77C439.616 107.748 439.431 106.737 439.1 105.77C438.586 104.743 437.973 103.768 437.27 102.86C435.944 100.714 435.333 98.2016 435.525 95.6857C435.717 93.1699 436.703 90.78 438.34 88.86C441.41 85.4 446.23 84.1 450.83 83.57C453.724 83.2316 456.64 83.1279 459.55 83.26" fill="#FFE25A"/>
<path d="M1036 296L1016 496L327 776L94 557L77 351L734 159L1036 296Z" fill="#DFE6F5"/>
<path opacity="0.1" d="M311.3 783.2L78.3001 564.2L61.3 358.2L305.3 557.2L311.3 783.2Z" fill="black"/>
<path opacity="0.05" d="M1020.3 303.2L1000.3 503.2L311.3 783.2L305.3 557.2L1020.3 303.2Z" fill="black"/>
<path d="M80.8 373.7L722.8 191.7L988.8 314.7L304.8 556.7L80.8 373.7Z" fill="#A7ADB8"/>
<path d="M836.8 84.29L828.91 85.09L621.76 105.93C611.887 106.912 602.679 111.35 595.76 118.46L482.76 234.74L229 495.79L304.3 557.2L485.88 492.7L565.05 464.6L787.67 198.13L857.84 114.13C857.84 114.13 859.66 90.24 836.8 84.29Z" fill="#454B69"/>
<path opacity="0.1" d="M836.8 84.29L828.91 85.09C838.58 95.26 833.55 98.19 833.55 98.19L757.55 184.45L485.88 492.7L565.05 464.6L787.67 198.13L857.84 114.13C857.84 114.13 859.66 90.24 836.8 84.29Z" fill="black"/>
<path opacity="0.1" d="M749.914 664.501C771.674 653.595 787.893 641.921 786.141 638.425C784.389 634.929 765.329 640.936 743.57 651.842C721.811 662.748 705.592 674.422 707.344 677.918C709.096 681.414 728.155 675.407 749.914 664.501Z" fill="#FFE25A"/>
<path d="M746.99 658.39C749.089 658.39 750.79 656.16 750.79 653.41C750.79 650.66 749.089 648.43 746.99 648.43C744.891 648.43 743.19 650.66 743.19 653.41C743.19 656.16 744.891 658.39 746.99 658.39Z" fill="#3F3D56"/>
<path d="M746.99 652.3C749.089 652.3 750.79 650.07 750.79 647.32C750.79 644.57 749.089 642.34 746.99 642.34C744.891 642.34 743.19 644.57 743.19 647.32C743.19 650.07 744.891 652.3 746.99 652.3Z" fill="#3F3D56"/>
<path d="M746.99 646.22C749.089 646.22 750.79 643.99 750.79 641.24C750.79 638.49 749.089 636.26 746.99 636.26C744.891 636.26 743.19 638.49 743.19 641.24C743.19 643.99 744.891 646.22 746.99 646.22Z" fill="#3F3D56"/>
<path d="M746.99 640.14C749.089 640.14 750.79 637.91 750.79 635.16C750.79 632.41 749.089 630.18 746.99 630.18C744.891 630.18 743.19 632.41 743.19 635.16C743.19 637.91 744.891 640.14 746.99 640.14Z" fill="#3F3D56"/>
<path d="M746.99 634.06C749.089 634.06 750.79 631.83 750.79 629.08C750.79 626.33 749.089 624.1 746.99 624.1C744.891 624.1 743.19 626.33 743.19 629.08C743.19 631.83 744.891 634.06 746.99 634.06Z" fill="#3F3D56"/>
<path d="M746.99 627.98C749.089 627.98 750.79 625.75 750.79 623C750.79 620.25 749.089 618.02 746.99 618.02C744.891 618.02 743.19 620.25 743.19 623C743.19 625.75 744.891 627.98 746.99 627.98Z" fill="#3F3D56"/>
<path d="M746.99 621.9C749.089 621.9 750.79 619.67 750.79 616.92C750.79 614.17 749.089 611.94 746.99 611.94C744.891 611.94 743.19 614.17 743.19 616.92C743.19 619.67 744.891 621.9 746.99 621.9Z" fill="#3F3D56"/>
<path d="M761.22 575.3C761.737 574.636 762.208 573.938 762.63 573.21L752.63 571.57L763.44 571.65C764.473 569.396 765.037 566.954 765.095 564.475C765.154 561.996 764.706 559.531 763.78 557.23L749.29 564.74L762.66 554.92C761.401 552.77 759.713 550.902 757.703 549.43C755.692 547.958 753.401 546.915 750.971 546.365C748.541 545.814 746.024 545.768 743.575 546.23C741.127 546.691 738.799 547.65 736.736 549.048C734.673 550.445 732.919 552.25 731.582 554.353C730.245 556.455 729.353 558.81 728.963 561.271C728.572 563.732 728.691 566.246 729.311 568.659C729.932 571.073 731.041 573.333 732.57 575.3C731.787 576.325 731.116 577.431 730.57 578.6L743.57 585.33L729.75 580.69C728.78 583.559 728.54 586.625 729.052 589.611C729.563 592.596 730.81 595.407 732.68 597.79C730.568 600.476 729.254 603.702 728.889 607.1C728.524 610.498 729.122 613.929 730.616 617.003C732.109 620.076 734.437 622.668 737.333 624.481C740.23 626.294 743.578 627.255 746.995 627.255C750.412 627.255 753.76 626.294 756.657 624.481C759.553 622.668 761.881 620.076 763.374 617.003C764.868 613.929 765.466 610.498 765.101 607.1C764.736 603.702 763.422 600.476 761.31 597.79C763.83 594.579 765.199 590.616 765.199 586.535C765.199 582.454 763.83 578.491 761.31 575.28L761.22 575.3Z" fill="#FFE25A"/>
<path opacity="0.1" d="M728.7 586.6C728.698 590.665 730.06 594.612 732.57 597.81C730.458 600.496 729.144 603.723 728.779 607.12C728.414 610.518 729.012 613.949 730.506 617.023C731.999 620.097 734.327 622.688 737.223 624.501C740.12 626.314 743.468 627.275 746.885 627.275C750.302 627.275 753.65 626.314 756.547 624.501C759.443 622.688 761.771 620.097 763.264 617.023C764.758 613.949 765.356 610.518 764.991 607.12C764.626 603.723 763.312 600.496 761.2 597.81C763.66 594.71 728.7 584.51 728.7 586.6Z" fill="black"/>
<path opacity="0.1" d="M978.804 595.433C993.028 588.303 1003.63 580.671 1002.49 578.385C1001.34 576.099 988.879 580.025 974.655 587.154C960.43 594.284 949.827 601.916 950.973 604.202C952.119 606.488 964.579 602.562 978.804 595.433Z" fill="#FFE25A"/>
<path d="M976.9 591.46C978.27 591.46 979.38 590.005 979.38 588.21C979.38 586.415 978.27 584.96 976.9 584.96C975.53 584.96 974.42 586.415 974.42 588.21C974.42 590.005 975.53 591.46 976.9 591.46Z" fill="#3F3D56"/>
<path d="M976.9 587.48C978.27 587.48 979.38 586.025 979.38 584.23C979.38 582.435 978.27 580.98 976.9 580.98C975.53 580.98 974.42 582.435 974.42 584.23C974.42 586.025 975.53 587.48 976.9 587.48Z" fill="#3F3D56"/>
<path d="M976.9 583.5C978.27 583.5 979.38 582.045 979.38 580.25C979.38 578.455 978.27 577 976.9 577C975.53 577 974.42 578.455 974.42 580.25C974.42 582.045 975.53 583.5 976.9 583.5Z" fill="#3F3D56"/>
<path d="M976.9 579.53C978.27 579.53 979.38 578.075 979.38 576.28C979.38 574.485 978.27 573.03 976.9 573.03C975.53 573.03 974.42 574.485 974.42 576.28C974.42 578.075 975.53 579.53 976.9 579.53Z" fill="#3F3D56"/>
<path d="M976.9 575.55C978.27 575.55 979.38 574.095 979.38 572.3C979.38 570.505 978.27 569.05 976.9 569.05C975.53 569.05 974.42 570.505 974.42 572.3C974.42 574.095 975.53 575.55 976.9 575.55Z" fill="#3F3D56"/>
<path d="M976.9 571.58C978.27 571.58 979.38 570.125 979.38 568.33C979.38 566.535 978.27 565.08 976.9 565.08C975.53 565.08 974.42 566.535 974.42 568.33C974.42 570.125 975.53 571.58 976.9 571.58Z" fill="#3F3D56"/>
<path d="M976.9 567.6C978.27 567.6 979.38 566.145 979.38 564.35C979.38 562.555 978.27 561.1 976.9 561.1C975.53 561.1 974.42 562.555 974.42 564.35C974.42 566.145 975.53 567.6 976.9 567.6Z" fill="#3F3D56"/>
<path d="M986.2 537.14C986.54 536.71 986.847 536.255 987.12 535.78L980.59 534.71H987.66C988.379 533.141 988.75 531.436 988.75 529.71C988.751 528.184 988.456 526.673 987.88 525.26L978.41 530.17L987.15 523.75C986.328 522.343 985.225 521.121 983.911 520.157C982.597 519.194 981.099 518.511 979.51 518.15C977.921 517.79 976.275 517.759 974.674 518.061C973.073 518.362 971.551 518.99 970.202 519.903C968.853 520.817 967.706 521.999 966.832 523.374C965.958 524.749 965.376 526.289 965.122 527.899C964.868 529.508 964.947 531.152 965.354 532.73C965.761 534.308 966.488 535.785 967.49 537.07C966.962 537.743 966.506 538.471 966.13 539.24L974.61 543.65L965.61 540.65C964.974 542.526 964.817 544.531 965.152 546.483C965.487 548.436 966.305 550.273 967.53 551.83C966.146 553.586 965.285 555.697 965.044 557.92C964.804 560.143 965.194 562.388 966.17 564.4C967.146 566.412 968.668 568.108 970.563 569.295C972.458 570.482 974.649 571.111 976.885 571.111C979.121 571.111 981.312 570.482 983.207 569.295C985.102 568.108 986.624 566.412 987.6 564.4C988.576 562.388 988.966 560.143 988.726 557.92C988.485 555.697 987.624 553.586 986.24 551.83C987.891 549.732 988.789 547.14 988.789 544.47C988.789 541.8 987.891 539.208 986.24 537.11L986.2 537.14Z" fill="#FFE25A"/>
<path opacity="0.1" d="M964.94 544.5C964.935 547.171 965.834 549.765 967.49 551.86C966.106 553.616 965.245 555.727 965.004 557.95C964.764 560.173 965.154 562.418 966.13 564.43C967.106 566.442 968.628 568.138 970.523 569.325C972.418 570.512 974.609 571.141 976.845 571.141C979.081 571.141 981.272 570.512 983.167 569.325C985.062 568.138 986.584 566.442 987.56 564.43C988.536 562.418 988.926 560.173 988.686 557.95C988.445 555.727 987.584 553.616 986.2 551.86C987.79 549.83 964.94 543.16 964.94 544.5Z" fill="black"/>
<path opacity="0.1" d="M224.762 780.73C228.967 776.524 224.095 764.833 213.879 754.617C203.663 744.401 191.972 739.529 187.766 743.734C183.56 747.94 188.432 759.632 198.648 769.848C208.864 780.064 220.556 784.936 224.762 780.73Z" fill="#FFE25A"/>
<path d="M208.12 763.94C211.312 763.94 213.9 760.551 213.9 756.37C213.9 752.189 211.312 748.8 208.12 748.8C204.928 748.8 202.34 752.189 202.34 756.37C202.34 760.551 204.928 763.94 208.12 763.94Z" fill="#3F3D56"/>
<path d="M208.12 754.69C211.312 754.69 213.9 751.301 213.9 747.12C213.9 742.939 211.312 739.55 208.12 739.55C204.928 739.55 202.34 742.939 202.34 747.12C202.34 751.301 204.928 754.69 208.12 754.69Z" fill="#3F3D56"/>
<path d="M208.12 745.43C211.312 745.43 213.9 742.041 213.9 737.86C213.9 733.679 211.312 730.29 208.12 730.29C204.928 730.29 202.34 733.679 202.34 737.86C202.34 742.041 204.928 745.43 208.12 745.43Z" fill="#3F3D56"/>
<path d="M208.12 736.17C211.312 736.17 213.9 732.781 213.9 728.6C213.9 724.419 211.312 721.03 208.12 721.03C204.928 721.03 202.34 724.419 202.34 728.6C202.34 732.781 204.928 736.17 208.12 736.17Z" fill="#3F3D56"/>
<path d="M208.12 726.92C211.312 726.92 213.9 723.531 213.9 719.35C213.9 715.169 211.312 711.78 208.12 711.78C204.928 711.78 202.34 715.169 202.34 719.35C202.34 723.531 204.928 726.92 208.12 726.92Z" fill="#3F3D56"/>
<path d="M208.12 717.66C211.312 717.66 213.9 714.271 213.9 710.09C213.9 705.909 211.312 702.52 208.12 702.52C204.928 702.52 202.34 705.909 202.34 710.09C202.34 714.271 204.928 717.66 208.12 717.66Z" fill="#3F3D56"/>
<path d="M208.12 708.41C211.312 708.41 213.9 705.021 213.9 700.84C213.9 696.659 211.312 693.27 208.12 693.27C204.928 693.27 202.34 696.659 202.34 700.84C202.34 705.021 204.928 708.41 208.12 708.41Z" fill="#3F3D56"/>
<path d="M229.78 637.5C230.569 636.494 231.288 635.435 231.93 634.33L216.73 631.83L233.17 631.95C234.756 628.514 235.621 624.789 235.713 621.005C235.804 617.221 235.119 613.459 233.7 609.95L211.64 621.39L231.98 606.39C230.08 603.088 227.519 600.214 224.457 597.947C221.396 595.679 217.9 594.067 214.188 593.212C210.476 592.356 206.627 592.275 202.882 592.974C199.137 593.672 195.577 595.136 192.423 597.272C189.269 599.409 186.589 602.173 184.552 605.392C182.514 608.61 181.162 612.215 180.58 615.98C179.998 619.744 180.198 623.589 181.169 627.273C182.139 630.956 183.859 634.401 186.22 637.39C184.986 638.954 183.927 640.647 183.06 642.44L202.79 652.69L181.79 645.63C180.318 649.994 179.956 654.656 180.736 659.195C181.517 663.735 183.415 668.008 186.26 671.63C183.045 675.717 181.045 680.627 180.489 685.797C179.933 690.968 180.843 696.19 183.115 700.868C185.387 705.545 188.929 709.489 193.337 712.249C197.745 715.008 202.84 716.471 208.04 716.471C213.24 716.471 218.335 715.008 222.743 712.249C227.151 709.489 230.693 705.545 232.965 700.868C235.237 696.19 236.147 690.968 235.591 685.797C235.035 680.627 233.035 675.717 229.82 671.63C233.661 666.746 235.749 660.713 235.749 654.5C235.749 648.287 233.661 642.254 229.82 637.37L229.78 637.5Z" fill="#FFE25A"/>
<path opacity="0.1" d="M180.29 654.6C180.281 660.815 182.37 666.851 186.22 671.73C183.005 675.817 181.005 680.727 180.449 685.897C179.893 691.068 180.803 696.29 183.075 700.968C185.347 705.645 188.889 709.589 193.297 712.349C197.705 715.108 202.8 716.571 208 716.571C213.2 716.571 218.296 715.108 222.703 712.349C227.111 709.589 230.653 705.645 232.925 700.968C235.197 696.29 236.107 691.068 235.551 685.897C234.995 680.727 232.995 675.817 229.78 671.73C233.49 667.05 180.29 651.52 180.29 654.6Z" fill="black"/>
</g>
<defs>
<clipPath id="clip0">
<rect width="1131.14" height="783.2" fill="white"/>
</clipPath>
</defs>
</svg>
