<svg width="975" height="438" viewBox="0 0 975 438" fill="none" xmlns="http://www.w3.org/2000/svg">
<g clip-path="url(#clip0)">
<path d="M932 149.5V193.5L246.5 435L24 251V211.5L665 30L932 149.5Z" fill="#DFE6F5"/>
<path d="M24 210L666 28L932 151L248 393L24 210Z" fill="#A7ADB8"/>
<line x1="245.501" y1="434.976" x2="247.501" y2="392.976" stroke="#A7ADB8"/>
<line x1="1.36099" y1="185.654" x2="24.361" y2="209.654" stroke="white"/>
<line x1="628.257" y1="6.57125" x2="663.257" y2="27.5713" stroke="white"/>
<line x1="0.858545" y1="185.52" x2="296.771" y2="98.2381" stroke="white"/>
<line x1="461.866" y1="52.5182" x2="627.779" y2="6.51817" stroke="white"/>
<path d="M327.406 89.0034C327.853 90.5981 328.57 91.7804 329.559 92.5504C330.547 93.3204 331.746 93.508 333.156 93.1132C333.618 92.9837 334.042 92.8524 334.429 92.7193C334.809 92.563 335.119 92.4262 335.361 92.3088L332.729 82.9143C332.348 82.7969 331.872 82.7433 331.301 82.7535C330.754 82.7572 330.214 82.8335 329.683 82.9824C327.233 83.6685 326.474 85.6755 327.406 89.0034ZM341.516 94.3981C341.093 94.6662 340.6 94.9538 340.038 95.2607C339.469 95.5445 338.863 95.8265 338.219 96.1067C337.597 96.3804 336.947 96.6374 336.266 96.8778C335.615 97.1348 334.978 97.3507 334.354 97.5255C332.852 97.9462 331.45 98.102 330.148 97.993C328.847 97.884 327.678 97.5384 326.643 96.956C325.601 96.3506 324.699 95.5316 323.936 94.499C323.19 93.4369 322.613 92.1778 322.205 90.7218C321.791 89.2427 321.604 87.8621 321.643 86.5799C321.676 85.2746 321.923 84.1088 322.384 83.0827C322.844 82.0565 323.509 81.1847 324.38 80.4673C325.274 79.7434 326.368 79.2002 327.662 78.8378C328.379 78.6371 329.034 78.5284 329.627 78.5118C330.244 78.4886 330.877 78.5233 331.526 78.6157L329.215 70.3651L334.147 68.0865L341.516 94.3981ZM339.929 80.7858L343.123 77.9097L340.153 67.3019L345.085 65.0233L347.57 73.8978L349.682 71.9605L352.135 74.7129L348.677 77.8497L350.648 84.8869C350.777 85.3492 350.929 85.7554 351.101 86.1058C351.274 86.4561 351.489 86.7325 351.745 86.935C352.024 87.1309 352.371 87.258 352.786 87.3163C353.201 87.3745 353.727 87.3393 354.364 87.2108L354.831 91.6786C353.322 92.0762 352.052 92.2575 351.02 92.2224C350.011 92.1809 349.155 91.972 348.452 91.5958C347.765 91.19 347.211 90.6349 346.789 89.9305C346.384 89.1965 346.046 88.3442 345.774 87.3735L344.23 81.8616L342.382 83.5382L339.929 80.7858ZM374.535 85.1132C373.728 85.6134 372.661 86.1616 371.332 86.758C370.01 87.3774 368.587 87.9007 367.061 88.3279C365.513 88.7616 364.16 88.9161 363.004 88.7913C361.871 88.6601 360.9 88.3089 360.092 87.7376C359.277 87.1433 358.597 86.3617 358.052 85.3929C357.507 84.4241 357.059 83.3157 356.71 82.0677L353.865 71.9106L359.03 70.464L361.7 79.9972C362.166 81.6611 362.722 82.8014 363.368 83.418C364.015 84.0345 364.939 84.1745 366.14 83.838C366.51 83.7344 366.9 83.6128 367.309 83.4732C367.712 83.3105 368.069 83.1607 368.38 83.0238L364.438 68.9494L369.603 67.5028L374.535 85.1132ZM381.243 73.4397C382.052 76.3285 383.624 77.4461 385.958 76.7924C386.489 76.6435 386.967 76.435 387.39 76.1669C387.813 75.8988 388.161 75.627 388.433 75.3515L386.122 67.1009C385.855 67.1259 385.545 67.1754 385.192 67.2494C384.832 67.3002 384.421 67.3904 383.959 67.5199C382.595 67.9017 381.705 68.6372 381.287 69.7262C380.869 70.8152 380.855 72.0531 381.243 73.4397ZM394.656 77.6835C395.491 80.6648 395.347 83.0854 394.223 84.9455C393.128 86.8222 390.998 88.2039 387.832 89.0906C386.723 89.4013 385.584 89.608 384.417 89.7107C383.255 89.8365 382.156 89.8703 381.118 89.8121L380.805 85.2264C381.705 85.3234 382.62 85.3414 383.55 85.2803C384.503 85.2128 385.545 85.0204 386.678 84.7033C388.157 84.289 389.106 83.6742 389.526 82.8588C389.969 82.037 390.048 81.1176 389.763 80.1007L389.578 79.4421C389.095 79.8516 388.572 80.2099 388.01 80.5168C387.465 80.7942 386.845 81.03 386.152 81.2242C383.633 81.9297 381.496 81.7306 379.742 80.6269C377.98 79.5001 376.724 77.5963 375.974 74.9154C375.598 73.575 375.466 72.3034 375.578 71.1007C375.683 69.8749 376.019 68.7591 376.585 67.7533C377.174 66.741 377.987 65.865 379.026 65.1254C380.059 64.3626 381.303 63.7774 382.759 63.3696C383.383 63.1949 384.029 63.0515 384.695 62.9396C385.378 62.7982 386.056 62.683 386.729 62.5942C387.402 62.5054 388.047 62.4495 388.664 62.4263C389.297 62.3736 389.864 62.3518 390.365 62.3611L394.656 77.6835ZM414.634 64.6861C415.036 66.1189 415.197 67.4945 415.117 68.8128C415.031 70.1079 414.715 71.2931 414.169 72.3682C413.616 73.4203 412.85 74.3328 411.87 75.1057C410.913 75.8721 409.753 76.4462 408.39 76.8281C407.049 77.2035 405.759 77.3155 404.521 77.1639C403.305 77.0059 402.188 76.621 401.169 76.009C400.144 75.374 399.247 74.5286 398.477 73.473C397.702 72.3942 397.113 71.1384 396.712 69.7055C396.311 68.2726 396.165 66.9054 396.274 65.6038C396.406 64.2957 396.748 63.1156 397.301 62.0635C397.877 61.005 398.643 60.0925 399.6 59.3261C400.58 58.5532 401.717 57.9855 403.011 57.6231C404.328 57.2542 405.595 57.1487 406.81 57.3067C408.049 57.4582 409.178 57.84 410.197 58.4519C411.215 59.0638 412.109 59.8976 412.879 60.9533C413.648 62.0089 414.233 63.2532 414.634 64.6861ZM409.365 66.1618C408.918 64.5672 408.245 63.4098 407.346 62.6897C406.463 61.94 405.432 61.7302 404.254 62.0603C403.075 62.3904 402.292 63.1083 401.903 64.214C401.509 65.2965 401.535 66.6351 401.981 68.2298C402.428 69.8244 403.107 71.0049 404.02 71.7712C404.926 72.5144 405.968 72.7209 407.147 72.3909C408.325 72.0608 409.097 71.3461 409.462 70.2469C409.844 69.1182 409.812 67.7564 409.365 66.1618ZM425.394 67.542C426.342 67.2766 426.986 66.9965 427.327 66.7016C427.668 66.4067 427.765 65.9934 427.616 65.4619C427.499 65.0459 427.145 64.7589 426.552 64.6008C425.953 64.4197 425.079 64.2783 423.929 64.1767C423.035 64.1028 422.209 63.9979 421.448 63.862C420.71 63.7197 420.049 63.4937 419.463 63.1841C418.872 62.8513 418.361 62.4085 417.932 61.8557C417.503 61.303 417.166 60.5875 416.92 59.7092C416.441 57.999 416.698 56.4691 417.691 55.1193C418.683 53.7696 420.289 52.784 422.508 52.1627C423.617 51.852 424.709 51.6582 425.784 51.5814C426.853 51.4815 427.72 51.463 428.386 51.5258L428.611 55.7995C427.952 55.7598 427.241 55.7594 426.479 55.7983C425.741 55.8307 424.932 55.9698 424.054 56.2158C422.436 56.6689 421.754 57.3461 422.006 58.2474C422.064 58.4554 422.151 58.6306 422.266 58.7729C422.38 58.9153 422.564 59.0382 422.817 59.1417C423.064 59.2221 423.387 59.3063 423.785 59.3941C424.2 59.4523 424.714 59.5077 425.327 59.5604C426.576 59.6592 427.629 59.8131 428.485 60.0219C429.334 60.2077 430.035 60.485 430.587 60.8538C431.156 61.193 431.602 61.6289 431.925 62.1613C432.272 62.6873 432.552 63.3317 432.766 64.0943C433.271 65.897 432.971 67.4514 431.866 68.7577C430.785 70.0576 429.007 71.0538 426.535 71.7463C424.917 72.1994 423.526 72.4394 422.362 72.4663C421.221 72.4867 420.417 72.4627 419.949 72.3943L419.641 67.957C420.616 68.0577 421.595 68.0826 422.578 68.0317C423.554 67.9577 424.493 67.7944 425.394 67.542ZM425.142 44.8825L420.772 51.303L417.822 49.8486L421.172 42.854L425.142 44.8825ZM434.604 59.1307C434.235 57.8134 434.097 56.5187 434.189 55.2466C434.298 53.945 434.637 52.7534 435.207 51.6718C435.77 50.567 436.558 49.5986 437.571 48.7665C438.584 47.9345 439.83 47.3113 441.309 46.8971C442.28 46.6252 443.195 46.4685 444.056 46.4268C444.91 46.3621 445.764 46.3847 446.617 46.4946L446.698 50.9209C446.161 50.8719 445.584 50.859 444.967 50.8821C444.351 50.9053 443.684 51.0172 442.968 51.2178C441.442 51.645 440.431 52.4392 439.934 53.6003C439.46 54.755 439.439 56.1065 439.873 57.6549C440.333 59.2958 441.035 60.4698 441.981 61.177C442.95 61.8776 444.313 61.982 446.069 61.4901C446.693 61.3153 447.347 61.0699 448.031 60.7537C448.715 60.4375 449.322 60.0681 449.852 59.6456L451.764 63.671C451.234 64.0935 450.545 64.5234 449.695 64.9607C448.846 65.398 447.878 65.7688 446.792 66.073C445.128 66.539 443.627 66.6976 442.289 66.5489C440.945 66.377 439.76 65.9736 438.735 65.3385C437.733 64.697 436.885 63.8503 436.192 62.7983C435.515 61.7168 434.986 60.4942 434.604 59.1307ZM443.666 39.6946L439.296 46.1151L436.346 44.6607L439.696 37.6661L443.666 39.6946Z" fill="white"/>
<path d="M44.3319 413.003C44.296 416.003 45.49 417.517 47.9138 417.546C48.4658 417.553 48.9826 417.487 49.4643 417.349C49.946 417.211 50.356 417.048 50.6942 416.86L50.7968 408.292C50.5334 408.241 50.2219 408.201 49.8622 408.173C49.5028 408.121 49.0831 408.092 48.6031 408.086C47.1872 408.069 46.1257 408.524 45.4185 409.452C44.7114 410.38 44.3492 411.563 44.3319 413.003ZM56.0109 420.848C55.9738 423.943 55.1544 426.226 53.5527 427.695C51.9747 429.188 49.5418 429.915 46.2541 429.875C45.1022 429.862 43.9515 429.74 42.8022 429.51C41.6526 429.304 40.5878 429.028 39.6079 428.68L40.5977 424.191C41.4336 424.537 42.3064 424.812 43.216 425.015C44.1497 425.218 45.2045 425.327 46.3804 425.341C47.9163 425.359 49.0002 425.036 49.6322 424.371C50.2882 423.707 50.6225 422.847 50.6352 421.791L50.6434 421.107C50.0642 421.364 49.4618 421.561 48.8362 421.698C48.2348 421.811 47.5741 421.863 46.8542 421.854C44.2383 421.823 42.2437 421.031 40.8702 419.478C39.4969 417.902 38.827 415.721 38.8603 412.938C38.877 411.546 39.1081 410.288 39.5536 409.166C39.9993 408.019 40.6351 407.043 41.4608 406.236C42.3105 405.43 43.3379 404.819 44.543 404.401C45.7483 403.96 47.107 403.748 48.6189 403.766C49.2668 403.774 49.9263 403.818 50.5974 403.898C51.2928 403.954 51.9759 404.034 52.6467 404.138C53.3175 404.242 53.952 404.37 54.5502 404.521C55.1728 404.648 55.7231 404.787 56.2014 404.937L56.0109 420.848ZM72.5941 409.237C72.1155 409.112 71.553 408.985 70.9065 408.857C70.2603 408.705 69.5652 408.625 68.8212 408.616C68.4853 408.612 68.0769 408.643 67.596 408.709C67.1395 408.752 66.7908 408.808 66.5499 408.877L66.3767 423.348L61.0131 423.284L61.2277 405.357C62.1917 405.032 63.3233 404.734 64.6227 404.462C65.9463 404.165 67.4121 404.027 69.02 404.046C69.3079 404.05 69.6556 404.078 70.063 404.131C70.4707 404.16 70.8781 404.212 71.2852 404.289C71.6926 404.342 72.0997 404.419 72.5065 404.52C72.9136 404.597 73.2605 404.697 73.547 404.82L72.5941 409.237ZM92.3701 423.011C91.455 423.264 90.2762 423.49 88.8337 423.689C87.3909 423.912 85.8776 424.013 84.2937 423.994C82.6858 423.975 81.3445 423.743 80.2698 423.298C79.219 422.854 78.3862 422.244 77.7715 421.468C77.157 420.669 76.7243 419.728 76.4732 418.644C76.2222 417.561 76.1044 416.372 76.1199 415.076L76.2462 404.529L81.6098 404.593L81.4913 414.492C81.4706 416.22 81.6836 417.471 82.1304 418.244C82.5772 419.018 83.4245 419.412 84.6724 419.427C85.0564 419.431 85.4645 419.424 85.8968 419.405C86.3293 419.363 86.7139 419.319 87.0504 419.275L87.2254 404.66L92.589 404.724L92.3701 423.011ZM109.643 414.253C109.685 410.798 108.434 409.054 105.89 409.024C105.338 409.017 104.785 409.083 104.231 409.22C103.702 409.358 103.267 409.533 102.929 409.745L102.812 419.5C103.075 419.551 103.411 419.603 103.818 419.656C104.226 419.685 104.67 419.702 105.15 419.708C106.614 419.725 107.724 419.235 108.48 418.236C109.236 417.237 109.624 415.909 109.643 414.253ZM115.113 414.463C115.095 415.975 114.851 417.34 114.38 418.558C113.934 419.777 113.285 420.813 112.435 421.667C111.585 422.521 110.545 423.181 109.315 423.646C108.086 424.087 106.691 424.299 105.131 424.28C104.483 424.272 103.8 424.228 103.08 424.147C102.385 424.091 101.69 424.011 100.995 423.906C100.324 423.802 99.6777 423.687 99.0552 423.559C98.433 423.408 97.8827 423.257 97.4045 423.107L97.7213 396.649L103.095 395.85L102.982 405.281C103.585 405.024 104.212 404.828 104.862 404.691C105.511 404.555 106.208 404.491 106.952 404.5C108.296 404.516 109.481 404.771 110.507 405.263C111.534 405.731 112.39 406.402 113.075 407.274C113.761 408.146 114.276 409.196 114.622 410.425C114.967 411.629 115.131 412.975 115.113 414.463ZM136.947 414.688C136.929 416.176 136.697 417.541 136.25 418.784C135.803 420.003 135.166 421.051 134.34 421.93C133.514 422.784 132.522 423.444 131.364 423.91C130.23 424.376 128.955 424.601 127.54 424.584C126.148 424.568 124.879 424.312 123.732 423.819C122.61 423.325 121.646 422.642 120.841 421.768C120.035 420.87 119.412 419.807 118.971 418.577C118.53 417.324 118.318 415.953 118.336 414.465C118.354 412.977 118.598 411.624 119.069 410.406C119.563 409.188 120.224 408.152 121.05 407.297C121.9 406.443 122.892 405.783 124.026 405.317C125.184 404.851 126.434 404.626 127.778 404.642C129.146 404.658 130.391 404.913 131.513 405.407C132.66 405.9 133.635 406.584 134.441 407.458C135.247 408.331 135.87 409.383 136.311 410.612C136.753 411.842 136.965 413.2 136.947 414.688ZM131.475 414.623C131.495 412.967 131.174 411.667 130.514 410.723C129.877 409.755 128.947 409.264 127.723 409.249C126.499 409.235 125.546 409.703 124.862 410.655C124.179 411.583 123.827 412.875 123.808 414.531C123.788 416.187 124.108 417.511 124.768 418.503C125.429 419.471 126.371 419.962 127.595 419.977C128.819 419.991 129.76 419.523 130.42 418.57C131.103 417.594 131.455 416.279 131.475 414.623ZM146.47 420.455C147.453 420.466 148.151 420.379 148.561 420.192C148.971 420.005 149.18 419.635 149.186 419.083C149.191 418.651 148.932 418.276 148.408 417.958C147.884 417.615 147.084 417.234 146.009 416.813C145.173 416.491 144.409 416.158 143.717 415.813C143.049 415.469 142.478 415.066 142.003 414.605C141.529 414.119 141.164 413.551 140.908 412.9C140.651 412.248 140.529 411.467 140.54 410.555C140.561 408.779 141.238 407.383 142.57 406.367C143.902 405.351 145.72 404.857 148.024 404.884C149.176 404.898 150.279 405.019 151.332 405.248C152.386 405.452 153.223 405.678 153.844 405.926L152.858 410.09C152.237 409.867 151.555 409.667 150.813 409.49C150.095 409.313 149.28 409.22 148.368 409.209C146.688 409.188 145.843 409.646 145.832 410.582C145.829 410.798 145.863 410.991 145.933 411.16C146.003 411.328 146.145 411.498 146.359 411.669C146.573 411.815 146.859 411.987 147.217 412.183C147.599 412.356 148.076 412.553 148.65 412.776C149.82 413.222 150.787 413.666 151.55 414.107C152.313 414.524 152.907 414.987 153.333 415.496C153.784 415.982 154.089 416.526 154.25 417.128C154.435 417.73 154.522 418.427 154.513 419.219C154.49 421.091 153.766 422.498 152.338 423.441C150.935 424.384 148.949 424.841 146.381 424.81C144.701 424.79 143.299 424.629 142.175 424.328C141.074 424.026 140.309 423.777 139.88 423.58L140.832 419.235C141.739 419.606 142.672 419.905 143.629 420.133C144.587 420.336 145.534 420.443 146.47 420.455ZM152.599 398.638L146.6 403.571L144.178 401.346L149.36 395.575L152.599 398.638ZM157.673 414.972C157.689 413.604 157.92 412.323 158.367 411.128C158.837 409.91 159.498 408.862 160.348 407.984C161.199 407.082 162.228 406.374 163.434 405.861C164.64 405.347 166.011 405.1 167.547 405.118C168.555 405.13 169.478 405.237 170.316 405.439C171.154 405.617 171.967 405.879 172.754 406.224L171.587 410.495C171.086 410.297 170.536 410.122 169.937 409.971C169.339 409.82 168.668 409.74 167.924 409.731C166.34 409.712 165.146 410.19 164.343 411.164C163.563 412.139 163.163 413.43 163.144 415.038C163.124 416.742 163.468 418.066 164.177 419.011C164.909 419.955 166.188 420.439 168.012 420.461C168.66 420.468 169.356 420.417 170.102 420.306C170.847 420.195 171.533 420.011 172.16 419.754L172.864 424.155C172.237 424.411 171.454 424.63 170.516 424.811C169.578 424.992 168.544 425.075 167.417 425.062C165.689 425.041 164.204 424.771 162.962 424.252C161.72 423.709 160.697 422.989 159.892 422.091C159.11 421.194 158.535 420.143 158.165 418.939C157.82 417.71 157.656 416.388 157.673 414.972ZM171.834 398.869L165.835 403.801L163.413 401.576L168.595 395.806L171.834 398.869Z" fill="white"/>
<path d="M757.05 45.6946C757.942 46.109 758.614 46.3151 759.065 46.3128C759.516 46.3105 759.858 46.059 760.09 45.5583C760.272 45.1665 760.189 44.7179 759.842 44.2126C759.504 43.6854 758.932 43.0094 758.124 42.1845C757.494 41.5478 756.933 40.9305 756.444 40.3326C755.976 39.7448 755.62 39.1431 755.377 38.5274C755.144 37.8898 755.044 37.2216 755.077 36.5227C755.111 35.8238 755.319 35.0608 755.703 34.2336C756.451 32.6228 757.641 31.6273 759.273 31.2472C760.905 30.8671 762.766 31.1623 764.856 32.1326C765.9 32.6178 766.856 33.1807 767.723 33.8213C768.6 34.4402 769.271 34.9899 769.736 35.4704L767.128 38.8637C766.653 38.405 766.114 37.9428 765.51 37.4771C764.927 37.0215 764.223 36.6017 763.395 36.2176C761.872 35.51 760.913 35.5807 760.518 36.4297C760.427 36.6256 760.379 36.8149 760.374 36.9976C760.368 37.1803 760.428 37.3933 760.553 37.6366C760.689 37.8582 760.879 38.1319 761.125 38.4576C761.402 38.7717 761.757 39.148 762.188 39.5865C763.073 40.4736 763.773 41.2748 764.287 41.9901C764.812 42.6836 765.164 43.3499 765.344 43.9889C765.555 44.6163 765.611 45.2375 765.51 45.8524C765.432 46.4775 765.226 47.1492 764.892 47.8675C764.104 49.5654 762.865 50.5515 761.177 50.8259C759.51 51.1104 757.512 50.7118 755.183 49.6303C753.659 48.9228 752.446 48.2009 751.544 47.4646C750.664 46.7384 750.069 46.1973 749.758 45.8412L752.409 42.2694C753.084 42.98 753.812 43.6354 754.592 44.2356C755.382 44.8141 756.201 45.3004 757.05 45.6946ZM785.446 46.2184C784.852 46.4718 784.046 46.8119 783.027 47.2386C782.03 47.6755 780.944 48.1633 779.768 48.702C778.591 49.2407 777.384 49.8179 776.146 50.4336C774.929 51.0594 773.793 51.6828 772.737 52.3039L781.03 56.155L779.15 60.2038L764.947 53.6085L766.281 50.7352C767.102 50.1638 768.035 49.5784 769.081 48.9791C770.159 48.368 771.258 47.7671 772.379 47.1763C773.522 46.5956 774.639 46.0426 775.729 45.5171C776.83 44.9698 777.836 44.4843 778.748 44.0607L771.434 40.6645L773.314 36.6157L786.962 42.9532L785.446 46.2184ZM785.048 52.662C785.755 51.1383 786.6 49.9166 787.583 48.9969C788.598 48.0656 789.663 47.3959 790.778 46.9878C791.894 46.5797 793.033 46.4071 794.194 46.4701C795.377 46.5433 796.491 46.8224 797.536 47.3076C799.974 48.4397 801.552 50.0852 802.269 52.2441C802.997 54.3814 802.689 56.8975 801.344 59.7926C801.213 60.0756 801.056 60.3862 800.872 60.7244C800.699 61.0408 800.54 61.3245 800.397 61.5756L789.361 56.451C789.005 57.5029 789.104 58.5147 789.658 59.4866C790.213 60.4584 791.186 61.2677 792.579 61.9146C793.472 62.329 794.378 62.6572 795.298 62.899C796.249 63.1291 797.053 63.2509 797.708 63.2641L796.527 67.5182C796.205 67.5275 795.796 67.4964 795.3 67.4248C794.804 67.3533 794.264 67.2347 793.679 67.0691C793.106 66.9353 792.5 66.7596 791.86 66.5419C791.22 66.3242 790.595 66.0738 789.986 65.7908C788.44 65.0732 787.197 64.2179 786.255 63.2251C785.336 62.2424 784.677 61.1823 784.279 60.0449C783.913 58.8958 783.797 57.6912 783.933 56.431C784.09 55.1809 784.461 53.9245 785.048 52.662ZM797.34 56.1074C797.51 55.6837 797.621 55.2456 797.672 54.7932C797.745 54.3508 797.722 53.9166 797.602 53.4906C797.505 53.0746 797.305 52.6777 797.004 52.2999C796.725 51.9321 796.303 51.6169 795.737 51.3541C795.193 51.1014 794.679 50.982 794.196 50.996C793.724 50.9882 793.286 51.076 792.883 51.2595C792.48 51.4429 792.107 51.7061 791.762 52.0489C791.45 52.3801 791.165 52.7373 790.908 53.1206L797.34 56.1074ZM817.329 62.2934C816.945 61.9824 816.484 61.636 815.946 61.2542C815.419 60.8507 814.818 60.4923 814.144 60.179C813.839 60.0375 813.454 59.8983 812.988 59.7614C812.554 59.6129 812.213 59.5208 811.965 59.485L805.87 72.611L801.005 70.3519L808.556 54.0914C809.568 54.1909 810.722 54.383 812.019 54.6676C813.348 54.9406 814.741 55.4156 816.2 56.0929C816.461 56.2141 816.766 56.3825 817.116 56.5978C817.476 56.7914 817.826 57.0068 818.166 57.2439C818.516 57.4593 818.855 57.6964 819.185 57.9553C819.525 58.1925 819.8 58.4261 820.011 58.6562L817.329 62.2934ZM834.528 75.4395C833.902 76.7891 833.13 77.9389 832.212 78.8889C831.305 79.8171 830.294 80.5121 829.18 80.9738C828.076 81.4138 826.901 81.6089 825.654 81.5591C824.428 81.5194 823.174 81.2014 821.889 80.605C820.627 80.0188 819.574 79.2654 818.732 78.3449C817.911 77.4344 817.312 76.4156 816.936 75.2883C816.57 74.1392 816.438 72.9136 816.54 71.6114C816.652 70.2874 817.021 68.9506 817.648 67.601C818.274 66.2514 819.052 65.1176 819.981 64.1995C820.932 63.2915 821.959 62.6175 823.063 62.1775C824.189 61.7476 825.365 61.5525 826.59 61.5922C827.837 61.6421 829.07 61.95 830.289 62.516C831.53 63.0921 832.561 63.8354 833.381 64.7458C834.224 65.6664 834.834 66.6903 835.21 67.8176C835.586 68.9449 835.723 70.1596 835.621 71.4618C835.519 72.764 835.155 74.0899 834.528 75.4395ZM829.565 73.135C830.263 71.633 830.504 70.316 830.289 69.1841C830.105 68.0405 829.458 67.2109 828.348 66.6954C827.238 66.1799 826.176 66.216 825.162 66.8037C824.159 67.3696 823.308 68.4036 822.611 69.9056C821.913 71.4075 821.662 72.7463 821.857 73.9218C822.062 75.0755 822.72 75.9101 823.83 76.4256C824.94 76.9411 825.991 76.8999 826.983 76.3021C828.007 75.6927 828.868 74.6369 829.565 73.135ZM844.254 77.0976C844.975 76.7976 845.718 76.4808 846.481 76.1473C847.267 75.8239 848.025 75.5013 848.756 75.1795C849.498 74.8359 850.192 74.5098 850.838 74.2012C851.506 73.9027 852.078 73.6392 852.555 73.4106L858.334 76.0942C856.564 76.8863 854.841 77.6342 853.164 78.3377C851.52 79.0295 849.747 79.7143 847.844 80.3922C848.224 81.2831 848.571 82.3039 848.883 83.4546C849.206 84.5834 849.491 85.7348 849.74 86.9087C849.989 88.0827 850.183 89.2314 850.323 90.3548C850.463 91.4782 850.551 92.4849 850.588 93.3751L845.004 90.7825C844.919 90.0548 844.804 89.2474 844.66 88.3604C844.548 87.4617 844.399 86.5587 844.212 85.6514C844.034 84.7223 843.809 83.8108 843.536 82.9167C843.285 82.0328 842.989 81.2468 842.647 80.5587L839.16 88.0686L834.295 85.8095L845.696 61.2555L850.925 62.7309L844.254 77.0976ZM872.091 92.8812C871.464 94.2308 870.692 95.3806 869.774 96.3305C868.867 97.2588 867.856 97.9537 866.742 98.4155C865.638 98.8555 864.463 99.0506 863.216 99.0007C861.991 98.961 860.736 98.643 859.452 98.0467C858.189 97.4604 857.136 96.707 856.294 95.7865C855.473 94.8761 854.874 93.8572 854.498 92.7299C854.132 91.5809 854 90.3552 854.102 89.053C854.214 87.7291 854.583 86.3923 855.21 85.0427C855.836 83.6931 856.614 82.5592 857.543 81.6411C858.494 80.7331 859.522 80.0591 860.626 79.6191C861.751 79.1893 862.927 78.9942 864.152 79.0339C865.399 79.0837 866.632 79.3916 867.851 79.9577C869.092 80.5338 870.123 81.2771 870.944 82.1875C871.786 83.108 872.396 84.1319 872.772 85.2592C873.148 86.3865 873.285 87.6013 873.183 88.9035C873.082 90.2057 872.717 91.5316 872.091 92.8812ZM867.128 90.5766C867.825 89.0746 868.066 87.7577 867.851 86.6257C867.667 85.4821 867.021 84.6525 865.91 84.1371C864.8 83.6216 863.738 83.6577 862.724 84.2454C861.721 84.8113 860.87 85.8452 860.173 87.3472C859.475 88.8492 859.224 90.1879 859.419 91.3634C859.624 92.5171 860.282 93.3518 861.392 93.8672C862.502 94.3827 863.553 94.3416 864.546 93.7438C865.569 93.1343 866.43 92.0786 867.128 90.5766ZM878.409 102.047C879.302 102.461 879.974 102.667 880.424 102.665C880.875 102.663 881.217 102.411 881.45 101.911C881.631 101.519 881.549 101.07 881.201 100.565C880.864 100.038 880.291 99.3616 879.484 98.5368C878.853 97.9 878.293 97.2827 877.803 96.6848C877.335 96.0971 876.98 95.4953 876.736 94.8796C876.503 94.2421 876.403 93.5738 876.437 92.8749C876.47 92.176 876.679 91.413 877.063 90.5858C877.811 88.975 879.001 87.9795 880.633 87.5994C882.265 87.2194 884.125 87.5145 886.215 88.4848C887.26 88.97 888.216 89.5329 889.083 90.1735C889.959 90.7924 890.63 91.3421 891.095 91.8226L888.488 95.216C888.013 94.7572 887.473 94.295 886.869 93.8293C886.287 93.3737 885.582 92.9539 884.755 92.5698C883.231 91.8622 882.272 91.9329 881.878 92.7819C881.787 92.9778 881.739 93.1671 881.733 93.3498C881.728 93.5325 881.788 93.7455 881.913 93.9889C882.048 94.2104 882.239 94.4841 882.484 94.8099C882.762 95.124 883.116 95.5003 883.548 95.9387C884.432 96.8258 885.132 97.627 885.647 98.3423C886.171 99.0358 886.524 99.7021 886.703 100.341C886.915 100.969 886.97 101.59 886.87 102.205C886.791 102.83 886.585 103.501 886.252 104.22C885.463 105.918 884.225 106.904 882.536 107.178C880.869 107.463 878.871 107.064 876.542 105.983C875.018 105.275 873.806 104.553 872.904 103.817C872.024 103.091 871.428 102.55 871.117 102.193L873.768 98.6216C874.444 99.3322 875.171 99.9876 875.951 100.588C876.741 101.166 877.56 101.653 878.409 102.047ZM892.95 84.666L885.455 86.7029L884.159 83.6802L891.252 80.5435L892.95 84.666ZM890.875 101.643C891.451 100.403 892.188 99.329 893.085 98.4226C894.014 97.5045 895.047 96.8196 896.183 96.368C897.329 95.8946 898.557 95.6711 899.868 95.6976C901.179 95.7241 902.531 96.0608 903.924 96.7077C904.838 97.1322 905.636 97.6084 906.317 98.1363C907.008 98.6425 907.642 99.2147 908.218 99.853L905.402 103.269C905.026 102.882 904.596 102.497 904.112 102.114C903.629 101.731 903.05 101.382 902.375 101.069C900.938 100.402 899.653 100.348 898.521 100.907C897.41 101.476 896.516 102.49 895.838 103.948C895.121 105.493 894.891 106.842 895.15 107.994C895.431 109.157 896.398 110.122 898.053 110.89C898.64 111.163 899.297 111.402 900.022 111.606C900.748 111.811 901.449 111.925 902.126 111.948L900.962 116.25C900.285 116.227 899.481 116.105 898.552 115.885C897.622 115.665 896.645 115.317 895.622 114.842C894.055 114.114 892.811 113.259 891.892 112.276C890.982 111.272 890.344 110.195 889.978 109.046C889.634 107.907 889.54 106.713 889.697 105.463C889.886 104.201 890.279 102.928 890.875 101.643ZM910.397 92.7675L902.902 94.8045L901.607 91.7817L908.699 88.6451L910.397 92.7675Z" fill="white"/>
<line x1="665.867" y1="27.5179" x2="705.867" y2="16.5179" stroke="white"/>
<line x1="931.821" y1="151.533" x2="970.82" y2="136.533" stroke="white"/>
<line x1="706.199" y1="16.5415" x2="752.199" y2="36.5415" stroke="white"/>
<path d="M917 113.5L970 136.5" stroke="white"/>
<line y1="-0.5" x2="64" y2="-0.5" transform="matrix(-1 0 0 1 246 435)" stroke="white"/>
<line y1="-0.5" x2="64" y2="-0.5" transform="matrix(-1 0 0 1 247 393)" stroke="white"/>
<line y1="-0.5" x2="42" y2="-0.5" transform="matrix(0 1 1 5.22238e-10 185 393)" stroke="white"/>
<path d="M630.53 5.88549L624.091 15.1207L619.312 4.92671L630.53 5.88549Z" fill="#A7ADB8"/>
<path d="M705.395 15.5429L716.65 15.8351L710.769 25.4357L705.395 15.5429Z" fill="#A7ADB8"/>
<path d="M2.37016 184.793L9.3962 175.996L13.5015 186.479L2.37016 184.793Z" fill="#A7ADB8"/>
<path d="M970.108 137.384L966.347 126.772L959.037 135.335L970.108 137.384Z" fill="#A7ADB8"/>
<path d="M184.5 435L190.129 425.25H178.871L184.5 435Z" fill="#A7ADB8"/>
<path d="M184.5 393L190.129 402.75H178.871L184.5 393Z" fill="#A7ADB8"/>
</g>
<defs>
<clipPath id="clip0">
<rect width="974.328" height="437.236" fill="white"/>
</clipPath>
</defs>
</svg>
